<?xml version="1.0" encoding="UTF-8"?><svg id="Layer_1" xmlns="http://www.w3.org/2000/svg" viewBox="0 0 224.25 231.06"><defs><style>.cls-1{fill:#103c21;}.cls-2{fill:#074c59;}.cls-3{fill:#e0e7c7;}.cls-4{fill:#1a391c;}.cls-5{fill:#3a793b;}.cls-6{fill:#f9fae4;}.cls-7{fill:#174725;}.cls-8{fill:#90bf72;}.cls-9{fill:#1d5027;}.cls-10{fill:#0f738f;}.cls-11{fill:#952e1f;}.cls-12{fill:#19331a;}.cls-13{fill:#6f8d6b;}.cls-14{fill:#cae2ab;}.cls-15{fill:#cd4b28;}.cls-16{fill:#194120;}.cls-17{fill:#a4cc86;}.cls-18{fill:#6ca858;}.cls-19{fill:#d0deb2;}.cls-20{fill:#558a4a;}.cls-21{fill:#122415;}.cls-22{fill:#619d49;}.cls-23{fill:#356b35;}.cls-24{fill:#e15d29;}.cls-25{fill:#1e4f27;}.cls-26{fill:#728d6c;}.cls-27{fill:#1f8bb6;}.cls-28{fill:#5c914a;}.cls-29{fill:#426a5e;}.cls-30{fill:#335135;}.cls-31{fill:#194c26;}.cls-32{fill:#0b311d;}.cls-33{fill:#142515;}.cls-34{fill:#70a653;}</style></defs><path class="cls-7" d="M145.36,15.68c.15-3.6.2-7.2.17-10.81l.36-.16.52.24v14.33l-.52.31c.59-1.59,2.92.64,1.14,1.55,1.55.5,2.18,2.56,1.21,3.68-1.81.07-3.64.16-5.48.26-.15.5-.37.5-.52,0-.1-.12-.19-.12-.26,0-.15.5-.37.5-.52,0-.67-.22-1.42-.22-2.09,0-.05.23-.14.22-.26,0h-9.14c-.08.69-.32.66-.52,0-.17-.12-.33-.07-.52,0-.15.5-.37.5-.52,0-.9-.33-1.68-.33-2.35,0-.24.51-.54.51-.78,0-.1-.12-.19-.12-.26,0-.08.69-.32.66-.52,0l-22.72.26c.26.13.08.3-.52.52l-.25.62c-2.28.76-3.17,3.09-3.37,5.3l-.55.35v10.18c.5.15.5.37,0,.52.22,1.12.23,2.27,0,3.39.51.24.51.54,0,.78.22,1.91.22,3.84,0,5.75.23.05.22.14,0,.26.33,1.29.18,2.62,0,3.92l.52.18v64l-.52.32c.21.4.21.91,0,1.31.23.07.22.16,0,.26v13.32c.23.07.22.16,0,.26.23,1.11.23,2.28,0,3.39.23.07.22.16,0,.26.22.78.22,1.57,0,2.35.5.15.5.37,0,.52.24,1.39.25,2.79,0,4.18.5.15.5.37,0,.52.2.34.2.7,0,1.04.23.07.22.16,0,.26v12.27c.5.15.5.37,0,.52.22.6.22,1.22,0,1.83.23.05.22.14,0,.26v8.1c.65,3.13.64,6.27,0,9.4v12.54c.51.24.51.54,0,.78.23.86.22,1.75,0,2.61.65.89.65,1.72,0,2.61.23,2,.2,4.01,0,6.01.5.15.5.37,0,.52.22.5.21,1.07,0,1.57.5.08.47.29,0,.52.24.67.2,1.41,0,2.09l.58.47c.3,2.67,2.13,4.44,4.73,4.92l.43.62c24.94.09,49.93.17,74.95.26.32.33.67.33,1.04,0,.43-.19.87-.19,1.31,0,.35.16.7.17,1.04,0,1.47-.21,2.97-.2,4.44,0,2.93,2.35.19,4.27-2.67,3.12-.41.69-1.75.85-1.82-.06-1.91.62-4.26.61-6.42.41l-.07-.3c-.61.35-1.3.51-2.08.48-.06.18-.14.17-.26,0-1.51-.48-3.08-.48-4.7,0-.17.19-.36.19-.52,0-1.28-.35-2.14-.39-3.45-.2-.66-.57-1.33-.7-2.03-.06-.09.23-.17.23-.26,0-1.32,0-2.63.08-3.92.26-10.27.22-20.55.21-30.82,0-.82.38-1.26.81-1.31,1.31-.59,1.63-1.04,2.87-1.83,4.44.16.35-.17.73-.52.52-1.24,1.34-2.63,2.25-4.18,2.87-5.48.94-11.94.93-17.59.49-2.2-.17-4.31-.37-5.91-2.06-.17-.1-.36-.16-.52-.26-.23-.07-.22-.16,0-.26-.78-.81-1.22-1.68-1.31-2.61-.44-.47-.68-1.12-.71-1.96l-.18-4.77c-.11-.53-.38-.98-.8-1.37-25.08.23-51.51.22-76.78,0-.78-.18-1.52-.18-2.22,0-3.4-.15-6.61-2.44-8.88-4.96-.1-.13-.39-.58-.52-.78-.83-.81-1.8-2.31-1.83-3.39l-.97-4.3c-.22-14.94-.16-29.87.19-44.79.14-.86.23-1.73.26-2.61-.54-.19-.54-.6,0-.78l-.26-1.57c-.39-.16-.39-.37,0-.52v-.26c-.39-.34-.39-.71,0-1.04.2-.41.21-.89,0-1.31-.39-.25-.39-.54,0-.78.82-.62.86-.87.14-.74l-.14-.56c-.39-.34-.39-.71,0-1.04v-.26c-.39-.6-.39-1.23,0-1.83l.34-.49c1.24.39,1.97.13,2.18-.79-.5-.55-.59-1.21.14-1.55l.27-3.98c.35-.61.77-.65,1,.02l.52.18v63.62c.66,5.66,4.93,9.56,10.6,9.86h73.09c1.47.05,2.4-.4,2.77-1.36l-.09-178.71c-3.43-.6-6.87,0-9.58,2.61-6.17,5.07-12.32,10.17-18.45,15.29-3.58,2.7-6.96,5.04-11.46,5.28s-9.19.46-13.8.26c-10.14-.64-20.26-.66-30.37-.04-.83.99-1.65,1.41-2.45,1.27-.55-.46-.36-.9.01-1.41l.03-1.51c-2.47-.4-2.22-3.2-.07-3.2.15-.94.51-1.42,1.08-1.46l.67-.47c2.43.07,4.86.06,7.29-.05l.66.52h.26c.24-.51.54-.51.78,0,.71.29,1.67.29,2.87,0,.24-.51.54-.51.78,0h19.33l.72-.52,7.04.16c6.74-.18,9-1.43,14.52-5.65,7.44-6.18,15.04-12.14,22.8-17.9.64-.44,6.23-.56,7.22-.44l.45.33c.17-1.73.26-3.47.26-5.22.1-1.25.19-2.47.26-3.66-.51-1.65-.51-3.32,0-4.96.74-.29.89.18,1.07.81l1.59-.05c-.56-.68-.24-1.21.96-1.61l.74-2.24.6-.05c.53.06.51.32,0,.52l-.26.78c.7.33.7.72,0,1.04.07,2.72.11,5.45.13,8.17-.03.76.52.89,1.18.97.08-.5.29-.47.52,0,.75-.23,1.43-.18,2.09.26.51-.73,1.33-.74,1.83,0,.28.09.52.13.78,0,.24-.5.55-.51.78,0,.33.19.72.2,1.04,0,.15-.5.37-.5.52,0,.5.21,1.07.21,1.57,0,.15-.5.37-.5.52,0,.1.12.19.12.26,0,.05-.23.14-.22.26,0,.22.13.4.13.52,0,.08-.69.32-.66.52,0,1.82.22,3.67.22,5.48,0,.05-.23.14-.22.26,0h29.51c-.45-.65-.14-.94.52-.52.15-1.12.28-2.28,0-3.39-.26-.05-.23-.41,0-.52Z"/><path class="cls-7" d="M118.72,230.09c-.23-.07-.22-.16,0-.26.05-.24.14-.23.26,0,.21.28.07.38-.26.26Z"/><path class="cls-31" d="M149.54,2.36c.2,7.13.29,14.27.26,21.41l.26.26c.3-.31.43-.15.26.26,21.33-.11,42.66.07,63.98.52,3.21.66,5.25,2.3,7.31,4.7,1.39,2.12,2.26,4.62,2.49,7.16.06,25.33.01,50.62-.14,75.89l-.35-.05c-.08-1.34-.47-2.48-1.17-3.42.27-.52.54-1,.81-1.47l-.02-6.99c-1.14-.49-1.03-1.31,0-1.84l-.05-16.64-.03-.21c-2.13,1.91-2.2-2.51-1.44-3.51,2.61-.97,1.81-2.01-.64-.98l-.49-.41-.25-.96c.24-13.27.23-26.51-.03-39.72l-.5-2.67-.73-.48c-1.94-6.26-7.41-7.5-13.28-7.34l-.61-.54c-.33.2-.72.2-1.04,0-.05.23-.14.22-.26,0h-26.38c-.24.51-.54.51-.78,0h-8.36c-.05.23-.14.22-.26,0-6.52.23-13.07.14-19.59,0-.23-.07-.22-.16,0-.26.07-.17-.04-.24-.26-.26-.17-.59-.11-2.17-.32-2.55-.12-.22-1.45-.49-1.5-1.24-.06-.83.82.06.77-.77-.04-.68-.74-.78-1.3-.66V4.71l-.52,10.97c-.19-1.46-.19-2.94,0-4.44-.23-.05-.22-.14,0-.26-.08-2.08-.15-4.15-.23-6.23-5.78-.14-11.62-.24-17.53-.3-.05.23-.14.22-.26,0-1.04.22-2.09.22-3.13,0-.05.23-.14.22-.26,0-6.88-.15-13.76-.15-20.63,0l-.45.58c-2.01.3-3.78,1.39-4.84,3.14l-.71.2c-.49.92-.58,2.13-.93,2.6s-1.07.45-1.16.54c-.54.54,2.4.77,1.3,2.08-.21.25-.98-.68-1.44-.78-.49-.11-2.05.12-2.2-.02-.1-.09.22-.66-.54-1.29l-.28.22c-6.5-.47-13.04-.6-19.62-.4l-.47-.35h-35.52c-.05.23-.14.22-.26,0H15.04l-.53.59c-4.5.66-8.13,3.96-9.27,8.35l-.65.46c-.32-.8-.36-.78-.13.05-.08,9.24-.04,18.45.13,27.63.57-.54,1.19.16.78.78.06.27.24.35.52.26.51-.5.66-.44.52.26-.13.33-.7,2.03-.79,2.09-.15.11-.89-.38-1.04-.26-.04.03.08.43-.03.56-.16.19-.51.3-.51.36.08,1.44,1.74,1.35,1.84,1.44.08.07.02,2.07,0,2.17-.01.07-.32.25-.52,1.22.46.37.41,1.02-.16,1.94-.14,26.09-.17,52.24-.11,78.43l-.52.32v.52c.69.08.66.32,0,.52-.83-.15-.46.42-.51.91-.12,1.08-.14,2.31-.27,3.35-.03.2-.54.16-.53.31.03.4.47.62.49.83.03.36-.71,1.04-.48,1.65l-2.61-.26c-.44-21.61-.45-43.29-.26-64.92-.2-8.25.06-16.47.78-24.66l1.56-2.36c-.41-.65-.93-1.26-1.56-1.82-.53-.93-.71-2.27-.77-3.36C0,40.39-.02,30.85.41,22.89c.17-3.19.43-6.32,2.36-9.03,1.89-3.6,6.41-6.52,10.45-7.05h79.91c-.23-.07-.22-.16,0-.26h.26c.24-.09,2.41-3.1,3.39-3.92,1.84-1.21,3.93-2,6.1-2.36,14.68.13,29.36.13,44.04,0,.96-.28,2.52,1.08,2.61,2.09Z"/><path class="cls-31" d="M223.44,206.58c.23.07.22.16,0,.26-.08-.03-.19.03-.26,0-.34.25-.37.68-.26,1.04-1.27,3.38-4.12,6.66-7.05,8.62-2.95,2.26-6.5,3.57-10.14,4.23-11.03.51-22.18.27-33.22-.05,1.97-.17,1.57-1.19,2.09-1.83.71-.86.45,1.5.52,1.57.23.23,4.06-.15,4.76-.29.21-.04.13-.44.58-.52,1.74-.28.99.51,1.19.8.33.48.66-.74,1.17-.8.75-.08,3.1,1.38,3.54-.91.06-.31-1.12-.89-.8-1.69,6.26.01,12.53-.08,18.8-.26l.55-.63c6.8-1.39,13.14-6.38,14.5-13.42l.62-.58c.41,1.33.12-1.32,0-2.09v-.26c.14-.25.32-.51.52-.78l.4-.45c.87.27,1.35-.13,1.46-1.22,1.04-.34,1.13-1.02.28-2.04.68-1.25.67-2.26,0-3.03.53-.95.53-1.65.43-2.74,0-.67.06-1.19.83-1.23.41,6.12.24,12.21-.52,18.28Z"/><path class="cls-30" d="M1.2,55.9c-.95,29.73-.53,59.75-.52,89.57,0,.61,0,1.22,0,1.83v.26c0,.35,0,.7,0,1.04.51.42.51.89,0,1.31,0,.26,0,.52,0,.78.21.43.21.87,0,1.31,0,.35,0,.7,0,1.04v.26c0,.17,0,.35,0,.52l.26,1.57c0,.26,0,.52,0,.78-.03.88-.12,1.75-.26,2.61-.06,14.92.07,29.87.02,44.78l.76,4.32c-1.13-1.51-1.32-3.7-1.45-5.6C-.02,154.05,0,105.84.08,57.67l.34-.99c.2-.42.6-.72.78-1.04v.26Z"/><path class="cls-21" d="M215.87,216.51c-2.84,2.51-6.57,3.66-10.18,4.44-.28.26-.8.32-1.04,0-26.05.28-52.08.28-78.08,0-.18-.08-.18-.16,0-.26,10.27-.01,20.55.02,30.82,0,.21-.26.51-.31.89-.12l3.03-.14c.09,0,.17,0,.26,0,.83-.5,1.75-.64,2.44.08.98-.26,1.99-.2,3.05.18.17,0,.35,0,.52,0,1.59-.34,3.16-.65,4.7,0,.09,0,.17,0,.26,0,10.02.09,22.19.76,31.99,0,4.01-.31,8.06-1.96,11.37-4.17Z"/><path class="cls-21" d="M150.84,24.3c14.87.13,29.9.05,45.09-.26,5.43.02,10.88.12,16.28.52.81.06,1.29.1,2.09.26l-63.98-.52h.52Z"/><path class="cls-21" d="M103.31.01c2.79-.05,5.57.05,8.36.26h.52c.34-.12.72-.21,1.04,0h.78c1.13-.22,2.27-.22,3.39,0,.44,0,.87,0,1.31,0,.96-.22,1.92-.22,2.87,0,.17,0,.35,0,.52,0,1.65-.22,3.31-.22,4.96,0h.52c.17-.12.34-.09.52,0,.17,0,.35,0,.52,0,.26-.16.51-.11.78,0h2.61c2.09-.22,4.18-.22,6.27,0,.17,0,.35,0,.52,0,1.2-.23,2.46-.23,3.66,0h1.31c.78-.22,1.57-.22,2.35,0h.78c-14.14,1.44-29.96-1.01-44.01.25-2.36.21-4.06,1.14-6.13,2.1,1.33-1.1,1.77-1.25,3.39-1.83-.06-.42.48-.44.78-.26.16-.18.42-.27.78-.26l.78-.26c.09-.01.17,0,.26,0,.17-.02.35.01.52,0Z"/><path class="cls-1" d="M122.9,226.95c-.39,1.22-2.59,2.91-3.92,2.87-.08.02-.18-.02-.26,0-.22-.86.99-.39,1.59-.9l2.59-1.98Z"/><path class="cls-1" d="M118.72,229.83v.26c-5.79,1.34-12.42,1.06-18.28.52l-1.04-.26c-.47.39-1.28.02-1.83-.26-.67-.26-1.96-1.15-2.35-1.83.47.28,1.71,1.03,2.08,1.18,2.42.98,18.63.93,21.42.39Z"/><path class="cls-32" d="M1.2,51.72c-.67.06-1.14-1.32-.78-1.83l-.26-1.31c-.14-.09-.14-.17,0-.26-.12-9.33-.03-18.65.26-27.94.04-1.56.32-3.35,1.04-4.7l1.31-1.83c-1.02,1.94-1.92,4.72-2.1,6.91-.46,5.48-.72,26.45.53,30.96Z"/><path class="cls-1" d="M1.2,51.72c.25.26,1.91,1.17,1.81,1.92l-1.81,2.26v-.26c.21-.37,1.32-2.09,1.32-2.22-.01-.66-.74-.65-1.06-.91-.16-.24-.19-.52-.26-.78Z"/><path class="cls-21" d="M222.66,30.83c.63,1.97,1.79,3.84,1.57,6.01v165.31l-.78,4.44c.77-5.87.48-12.19.52-18.28-.77-8.48-.86-17.12,0-25.59-.22-1.91-.22-3.83,0-5.75-.69-.08-.66-.32,0-.52-.2-.34-.2-.7,0-1.04-.5-.15-.5-.37,0-.52-.21-2-.31-4.01,0-6.01-.5-.15-.5-.37,0-.52v-18.28c-.69-.08-.66-.32,0-.52-.2-.25-.2-.52,0-.78-.51-.24-.51-.54,0-.78-.2-.77-.2-1.58,0-2.35-.51-.33-.51-.71,0-1.04-.14-.12-.14-.29,0-.52-.5-.15-.5-.37,0-.52-.14-2.75-.17-5.52-.09-8.29-.25-.47-.22-1.19.09-2.16-.53-.06-.5-.32,0-.52V36.7s-.77-3.66-.77-3.66l-1.58-3.52c.34.4.76.88,1.04,1.31Z"/><path class="cls-32" d="M223.18,206.84c-.11.34-.14.71-.26,1.04-.53-.25-.02-.9,0-1.31.29-.04.24.25.26.26Z"/><path class="cls-32" d="M126.56,220.95c.14.12.05.2-.26.26-.08.01-.18-.02-.26,0-.32.07-.63.49-.78.78,0-.02-.35-.23-.15-.51.26-.36,1.07-.54,1.46-.8v.26Z"/><path class="cls-28" d="M109.84,25.08c-.13.31.96.38,1.38.39-.52,0-.81-.13-.86-.39h14.62c.07-.12.16-.11.26,0,.26,0,.52,0,.78,0,.76-.38,1.55-.24,2.35,0,.17,0,.35,0,.52,0,.23-.14.41-.14.52,0h9.66c.09,0,.17,0,.26,0,.69-.22,1.39-.22,2.09,0,.17,0,.35,0,.52,0,.07-.12.16-.11.26,0,.17,0,.35,0,.52,0,1.89-.17,3.91-.29,5.75,0v.26c-2.09.21-2.57.29-1.44.26,5.26-.25,10.93-.27,16.19,0,1.58-.08,3.19-.16,4.83-.26.09,0,.17,0,.26,0h8.36c.26,0,.52,0,.78,0h26.38c.09,0,.17,0,.26,0,.33.2.72.2,1.04,0,7.3.17,11.84.45,14.62,8.36.26.76.35,1.46.26,2.09v11.23c.23.05.22.14,0,.26v91.93c.23.07.22.16,0,.26-.12.29-.13.48,0,.78.23.07.22.16,0,.26v60.33c.27.3.18.94,0,1.31-.97,7.67-8.33,13.48-15.67,14.62-33.43.29-68.21.19-101.59,0-3.51-.62-5.39-2.42-5.75-6.01.19-.68.23-1.41,0-2.09,0-.17,0-.35,0-.52.2-.5.22-1.07,0-1.57,0-.17,0-.35,0-.52.2-1.99.23-4.01,0-6.01,0-.87,0-1.74,0-2.61.22-.85.23-1.76,0-2.61,0-.26,0-.52,0-.78v-12.54c0-3.13,0-6.27,0-9.4v-8.1c0-.09,0-.17,0-.26.22-.58.22-1.24,0-1.83,0-.17,0-.35,0-.52v-12.54c.19-.33.2-.72,0-1.04,0-.17,0-.35,0-.52.26-1.38.24-2.8,0-4.18,0-.17,0-.35,0-.52.23-.76.23-1.59,0-2.35v-.26c.22-1.12.23-2.28,0-3.39v-13.84c.21-.41.21-.89,0-1.31V56.94c.17-1.3.34-2.63,0-3.92,0-.09,0-.17,0-.26.22-1.91.22-3.84,0-5.75,0-.26,0-.52,0-.78.23-1.12.22-2.28,0-3.39,0-.17,0-.35,0-.52v-10.18c.18-2.73,1.22-5.53,4.18-6.27,1.16-.36,2.29-.54,3.39-.52-.23-.07-.22-.16,0-.26h5.22Z"/><path class="cls-28" d="M36.2,10.98c.09,0,.17,0,.26,0h35.52c5.74.02,13.18-.58,18.68-.01.59.06,1.22.14,1.68.54,0,1.65,0,3.31,0,4.96-.07.23-.16.22-.26,0,.04,2.97-.05,5.93-.26,8.88-.82.82-6.06-.29-7.4.56-9.33,6.25-17.84,14.76-27.09,20.96-5.52,3.7-11.82,2.44-18.26,2.5h-19.33c-.26,0-.52,0-.78,0-1,.27-1.96.27-2.87,0-.26,0-.52,0-.78,0h-.26c-2.67-.01-6.07.27-8.62,0-.03,0-.33-.19-.52-.26-.34.13-.57.12-.52-.26-.23-.28-.76-.73-.78-.78-.25-9.09-.23-18.63,0-27.68,1.08-5.11,5.22-8.89,10.45-9.4,7.04-.3,14.09-.3,21.15,0Z"/><path class="cls-23" d="M5.38,56.94l2.3-1.75c14.5-1.6,30.73,1.01,45.11-.33,1.73-.16,3.82-.86,5.32-1.73,8.96-5.18,17.6-15.07,26.52-20.75,1.15-.8,6.69-1.19,7.39-.44l.08,178.7c.2,1.8-1.87,2.11-3.26,2.22H15.69c-6.17-.49-10.21-4.17-11.08-10.33v-63.85s0-.52,0-.52V59.68c-.06-1.01.59-1.8.78-2.73Z"/><path class="cls-28" d="M103.31,4.45c6.87-.15,13.75-.15,20.63,0,.09,0,.17,0,.26,0,1.03.22,2.1.23,3.13,0,.09,0,.17,0,.26,0,5.78.15,11.57.19,17.36.13.27,2.07.4,4.2.4,6.39,0,.09,0,.17,0,.26-.22,2.78-.22,5.58,0,8.36-.02.09-.47.3-.52.52h-29.51c-.09,0-.17,0-.26,0-1.82.22-3.66.22-5.48,0h-.52c-.13.13-.3.13-.52,0-.09,0-.17,0-.26,0-.07.12-.16.11-.26,0-.17,0-.35,0-.52,0-.52.22-1.05.21-1.57,0-.17,0-.35,0-.52,0-.34.2-.7.2-1.04,0-.26,0-.52,0-.78,0-.37.25-.64.25-.78,0-.61-.01-1.22.02-1.83,0-.7-.42-1.3-.46-2.09-.26-.17,0-.35,0-.52,0h-.87c-.39-2.95-.54-6-.44-9.14,0-.35-.02-.7,0-1.04l.26-.78c.01-.17,0-.35,0-.52,1.23-2.35,3.39-3.66,6.01-3.92Z"/><path class="cls-23" d="M120.29,220.95c-.46,3.55-1.85,4.7-5.34,4.97-2.77.22-12.43.41-14.78-.12-1.62-.37-2.78-1.9-3.05-3.48-.75-4.45.98-1.37,1.89-1.37h21.28Z"/><path class="cls-32" d="M102.79,216.77h101.59c-5.44.85-13.05.22-18.8.26-1.48,0-2.96,0-4.44,0-.45.32-.77.53-1.04,0-.44,0-.87,0-1.31,0-.34.43-.71.43-1.04,0h-75.6s.65-.26.65-.26Z"/><path class="cls-21" d="M93.39,225.13c.11.48.02.66-.26.52-.39-.92-.68-2.01-.78-3.01-.13-1.36.63-5.01-.93-5.34-26.23-.19-52.53.34-78.73-.27.57-.75,1.79,0,2.22,0h76.78c.3,0,.82.52.91.91.51,2.15-.16,4.55.78,7.18Z"/><path class="cls-32" d="M124.47,25.08h-14.1c-.16.38-.37.38-.52,0-1.74,0-3.49,0-5.22,0-.77.06-1.55.15-2.35.26-.05.27-.43.28-.52,0l22.72-.26Z"/><path class="cls-32" d="M39.07,49.37h-19.33c6.44.01,12.89.06,19.33,0Z"/><path class="cls-31" d="M161.55,220.42c-.47-1.1,1.55-.92,1.95-.8.31.09.07.73.14.8.3.28,1.4-.6,1.92-.53.09.01.67.83,1.47.8-1.87-.04-3.63-.14-5.48-.26Z"/><path class="cls-34" d="M97.05,181.51v12.54c-.02-4.17.01-8.36,0-12.54Z"/><path class="cls-34" d="M97.05,10.72c.67,2.4,0,4.99.3,7.41.11.86.07,1.47,1.01,1.73-.16,0-1.06.49-1.3.26-.34-.33-.01-8.18,0-9.4Z"/><path class="cls-34" d="M97.05,42.32c.03-3.31-.22-6.93,0-10.18v10.18Z"/><path class="cls-34" d="M92.08,16.47c.3,1.06.17,2.48,0,3.66,0,1,.22,4.75-.26,5.22l.26-8.88Z"/><path class="cls-31" d="M167.56,220.69c1.97-.67,2.82-1.41,4.7,0-1.56-.01-3.14.03-4.7,0Z"/><path class="cls-34" d="M145.36,15.68v.52c.28,1.11.15,2.27,0,3.39-.43-2.7-.44-5.69,0-8.36.02,1.48-.01,2.96,0,4.44Z"/><path class="cls-34" d="M97.05,172.11c0-2.69,0-5.4,0-8.1v8.1Z"/><path class="cls-31" d="M157.37,220.69l.52-.78c-.08,1,.78.24,1.45.27s1.41.21,1.95.24c-1.14.49-2.68.26-3.92.26Z"/><path class="cls-32" d="M148.23,24.82c.61.01,1.22-.01,1.83,0v.26s-1.57,0-1.57,0h-5.75c1.68-.45,3.74-.3,5.48-.26Z"/><path class="cls-31" d="M.68,148.61c2.07.4,2.8,1.35,0,1.31,0-.44,0-.87,0-1.31Z"/><path class="cls-34" d="M97.05,206.06c-.04-2,.02-4.01,0-6.01.44,1.78.44,4.21,0,6.01Z"/><path class="cls-34" d="M97.05,52.77c0-1.91-.01-3.83,0-5.75.44,1.71.44,4.06,0,5.75Z"/><path class="cls-32" d="M115.06,20.12c-1.59.44-3.87.44-5.48,0,1.82,0,3.66,0,5.48,0Z"/><path class="cls-34" d="M97.05,147.3c0-1.39,0-2.79,0-4.18.47,1.19.52,3,0,4.18Z"/><path class="cls-1" d="M94.7,227.74c-.77-.51-1.21-1.26-1.57-2.09l.26-.52c.34.94.98,1.69,1.31,2.61Z"/><path class="cls-34" d="M102.27,25.34c.76-.19,1.62-.28,2.35,0,.29.01.85-.18.78.26-1.46,0-2.74-.09-4.18.26l.52-.52h.52Z"/><path class="cls-34" d="M100.96,20.12c-.79-.02-1.58-.24-2.09-.26,1-.5,1.28-.68,2.09.26Z"/><path class="cls-32" d="M18.96,49.37c-.61.19-3.18.95-2.87,0,.96,0,1.92,0,2.87,0Z"/><path class="cls-23" d="M92.08,20.12v-3.66h.26c0,1.15.23,2.61-.26,3.66Z"/><path class="cls-31" d="M145.36,19.6v-3.39c.57,1.06.28,2.36,0,3.39Z"/><path class="cls-32" d="M128.38,25.08c-.78,0-1.57,0-2.35,0-.36-.8,1.84-.47,2.35,0Z"/><path class="cls-34" d="M97.05,139.99v-3.39c.44.82.44,2.53,0,3.39Z"/><path class="cls-34" d="M97.05,46.24c0-1.13,0-2.27,0-3.39.44.82.44,2.53,0,3.39Z"/><path class="cls-34" d="M97.05,56.94c.03-1.3,0-2.63,0-3.92.67.82.3,2.94,0,3.92Z"/><path class="cls-31" d="M.68,158.79c0-.81-.22-1.94.26-2.61,0,.88.45,1.82-.26,2.61Z"/><path class="cls-31" d="M181.14,217.03l-.65.78-.4-.78c.35,0,.7,0,1.04,0Z"/><path class="cls-34" d="M97.05,197.44c0-.87,0-1.74,0-2.61.44.58.44,2.03,0,2.61Z"/><path class="cls-34" d="M97.05,142.6c0-.78,0-1.57,0-2.35.44.5.44,1.85,0,2.35Z"/><path class="cls-32" d="M141.44,25.08c-.7,0-1.39,0-2.09,0,.42-.44,1.68-.44,2.09,0Z"/><path class="cls-31" d="M178.79,217.03c.29.78-1.28.84-1.04,0,.35,0,.7,0,1.04,0Z"/><path class="cls-34" d="M97.05,210.76c-.07-.67.03-1.41,0-2.09.44.41.44,1.67,0,2.09Z"/><path class="cls-31" d="M.94,155.4c-.45-.33-.25-1.08-.26-1.57.64.5.25,1.23.26,1.57Z"/><path class="cls-34" d="M97.05,163.75c0-.61,0-1.22,0-1.83.43.34.43,1.48,0,1.83Z"/><path class="cls-34" d="M97.05,208.15c-.02-.52.01-1.05,0-1.57.42.26.43,1.29,0,1.57Z"/><path class="cls-32" d="M107.49,20.12c-.26.42-1.29.43-1.57,0,.52,0,1.04,0,1.57,0Z"/><path class="cls-34" d="M97.05,122.75v-1.31c.41.18.41,1.13,0,1.31Z"/><path class="cls-32" d="M103.57,20.12l-.65.53-.13-.53c.26,0,.52,0,.78,0Z"/><path class="cls-31" d="M.68,152c0-.44,0-.87,0-1.31.41.18.41,1.13,0,1.31Z"/><rect class="cls-31" x="3.55" y="148.61" width=".52" height=".52"/><path class="cls-34" d="M97.05,148.87c0-.35,0-.7,0-1.04.39.09.4.93,0,1.04Z"/><rect class="cls-31" x="3.03" y="146.78" width=".52" height=".52"/><path class="cls-32" d="M105.4,20.12c-.09.39-.93.4-1.04,0,.35,0,.7,0,1.04,0Z"/><rect class="cls-31" x="178.53" y="218.86" width=".52" height=".52"/><path class="cls-23" d="M97.05,9.68c.02-.29-.07-.64.26-.78-.02.29.08.64-.26.78Z"/><polygon class="cls-32" points="109.06 20.12 108.92 20.38 108.54 20.12 109.06 20.12"/><path class="cls-32" d="M129.43,25.08c-.17,0-.35,0-.52,0l.39-.26.13.26Z"/><path class="cls-32" d="M15.04,49.37h.26c-.09,0-.17,0-.26,0Z"/><path class="cls-31" d="M.68,153.31c0-.09,0-.17,0-.26v.26Z"/><path class="cls-31" d="M.68,147.56c0-.09,0-.17,0-.26v.26Z"/><path class="cls-32" d="M142.22,25.08c-.09,0-.17,0-.26,0l.13-.26.13.26Z"/><path class="cls-32" d="M125.25,25.08c-.09,0-.17,0-.26,0l.13-.26.13.26Z"/><path class="cls-32" d="M108.01,20.12c.09,0,.17,0,.26,0l-.13.26-.13-.26Z"/><path class="cls-7" d="M220.57,77.05c.61-.15,2.75-.91,3.13-.52.06.06.05,1.75-.01,1.82-.08.09-1.48-.1-1.77.71-.27.75.1,2.22-.05,3.09l1.83-1.17.02,17.64c.37.68-1.04.81-.8,1.29.15.3.71-.05.8.28.11.4.12,7.93,0,8.33-.1.34-.76-.03-.81.28-.07.44.62.66.73,1.1.12.47.26,2.06.32,2.69.02.17-.01.35,0,.52.12.46-.31,2.29-.6,1.54-.01-.03.41-.19.34.28.31,1.65.22,3.87,0,5.61.06.98.15,1.98.26,3,0,.17,0,.35,0,.52-.13.22-.13.4,0,.52,0,.35,0,.7,0,1.04-.15.78-.23,1.59,0,2.35,0,.26,0,.52,0,.78-.18.26-.19.52,0,.78v18.8c0,.17,0,.35,0,.52-.26,1.99-.26,4,0,6.01,0,.17,0,.35,0,.52-.19.33-.2.72,0,1.04v.52c-.22,1.91-.22,3.84,0,5.75-.04,8.53.06,17.07,0,25.59-.52.83-.2,2.03-.27,2.99-.03.4-.5.67-.52,1.05,0,.15.49,0,.56.5.18,1.3-.6,2.44-.55,2.63.03.1.47.11.52.31.45,2.1-.57,1.49-.73,1.68-.49.55.13,2.11-2.39,1.54l-.23-.33-.02-10.03c-.09.17-.18.05-.28-.35v-.52c.38-1.05.48-2.57.3-4.57.19-1.94.09-3.46-.3-4.57v-.78c.07-.37.12-.6.28-.33.17-22.62.17-45.31-.02-68.09l.26-2.09c.13-.17.13-.35,0-.52-.39-.69-.39-1.4,0-2.09v-.52c-.41-6.61-.39-13.24,0-19.85.25-.27.25-.62,0-1.04-.42-1.36-.47-3.35,0-4.7.13-.17.13-.35,0-.52-.37-.34-.37-.71,0-1.04Z"/><path class="cls-1" d="M220.57,77.05c0,.35,0,.7,0,1.04.52.15.55.39,0,.52-.12,1.57,0,3.13,0,4.7.43.52.43.87,0,1.04,0,6.61,0,13.23,0,19.85.38.16.39.37,0,.52,0,.7,0,1.39,0,2.09.52.15.55.39,0,.52,0,22.96.76,46.77,0,69.61-.02.5.27,1.05-.52.9v-37.61c-.13-.27-.12-.51,0-.78V47.28c0-.09,0-.17,0-.26v-11.23c-.04-.71-.25-1.38-.26-2.09.43,1.22.7,2.1.79,3.52.86,12.53-.03,27.06,0,39.84Z"/><path class="cls-21" d="M93.13,6.8H14c.09,0,.17,0,.26,0,26.3-.25,52.59-.25,78.87,0Z"/><path class="cls-1" d="M71.97,10.98c-11.83-.04-23.68-.05-35.52,0h35.52Z"/><path class="cls-1" d="M149.8,23.52v.26l-.26-21.41c.18.52.23,1.37.27,1.95.47,6.05-.73,13.34-.01,19.21Z"/><path class="cls-32" d="M4.6,20.38v27.68c-.14-.26-.41-.43-.28-.89l.02-27.45.26.65Z"/><path class="cls-34" d="M203.86,25.34h-26.38c8.78,0,17.6-.15,26.38,0Z"/><path class="cls-34" d="M148.49,25.34c6.51-.13,13.07,0,19.59,0-1.46.49-3.3.26-4.83.26h-16.19c-2.21,0,.22-.24,1.44-.26Z"/><path class="cls-1" d="M36.2,10.98c-6.57.03-14.82-.62-21.15,0h21.15Z"/><path class="cls-34" d="M123.94,4.45h-20.63c6.13-.6,14.27,0,20.63,0Z"/><path class="cls-34" d="M145.36,10.98c-.66-.83.01-6-.26-6.27-.62-.62-15.4.67-17.5-.26l17.33.04c.74.28.41,5.38.43,6.49Z"/><path class="cls-34" d="M176.7,25.34h-8.36c2.78,0,5.58,0,8.36,0Z"/><path class="cls-34" d="M127.34,4.45c-.74.44-2.37.45-3.13,0,1.04,0,2.09,0,3.13,0Z"/><path class="cls-34" d="M205.16,25.34c-.09.39-.93.4-1.04,0,.35,0,.7,0,1.04,0Z"/><path class="cls-30" d="M150.06,24.04c-.03-.05-.23-.1-.26-.26-.02-.08.01-.18,0-.26l.26.52Z"/><path class="cls-1" d="M5.9,49.11c-.89.63-.49-.22-.52-.26.11.26.34.2.52.26Z"/><path class="cls-34" d="M220.05,177.86c0,.26,0,.52,0,.78.45,3.01.46,6.13,0,9.14,0,.17,0,.35,0,.52.47,3.73.62,7.77,0,11.49,0,.09,0,.17,0,.26.15.29.15.55,0,.78v-60.33c-.04,12.44.05,24.9,0,37.34Z"/><path class="cls-1" d="M220.05,188.3c.79-.15.5.4.52.9.11,2.91.25,6.98,0,9.81-.05.59.24.9-.52.78.17-3.79-.03-7.69,0-11.49Z"/><path class="cls-1" d="M220.05,200.05c.56.66.15,1.8.26,2.61l-.26-.52c.05-.41-.03-.88,0-1.31.02-.26-.01-.52,0-.78Z"/><path class="cls-29" d="M.42,49.89l-.26-1.31c0,.1.21,1.06.26,1.31Z"/><path class="cls-31" d="M214.04,36.57c-.15.62-.03,1.26.26,1.83.02.17-.01.35,0,.52v80.43c-.38,2.97-2.98,4.95-5.75,5.48-.36,0-.62-.08-.78-.26-1.12-.18-1.3-1.18-.12-1.57l.02-.54c-1.95,1.46-3.02-1.18-1.47-2.07l.11-.36c1.57.07,2.62-.53,3.29-1.99-.54-.02-.52-.39,0-.52.07-.23.16-.22.26,0V39.45c-.07.23-.16.22-.26,0v-.26c-.57.03-.66-.14-.26-.52-.15-.17-.24-.43-.26-.78-.42.24-.84.13-1.27-.36l-94.45-.18c-.88-.02-1.79.19-2.39.87l-.6-.08c-.33-.15-.46,1-.53,1.98-.14,1.96-.19,3.96-.19,5.94,0,11.31.08,22.84.31,34.26-.25,2.1-.21,4.15.15,6.14.15.17.16.35,0,.52-.39,2.45-.39,4.89,0,7.31.15.25.15.52,0,.78-.31,1.06-.37,2.77-.16,5.11-.3,6.3-.25,12.52.16,18.65.02,1.2-1.5,1.82-2.55,2.06-.41.85-.74,1-1.37.29-1.32-2.63-.74-7.16-.78-10.18v-8.1c0-.26,0-.52,0-.78.22-1.47.23-2.97,0-4.44,0-.09,0-.17,0-.26.27-2.17.2-4.36,0-6.53,0-.35,0-.7,0-1.04.19-.33.2-.72,0-1.04,0-.09,0-.17,0-.26.1-.46.19-.66.28-.25l-.28-4.45c0-.09,0-.17,0-.26v-10.71c-.24-.26-.24-.53,0-.78.22-2.17.22-4.36,0-6.53v-.78c.21-.41.21-.89,0-1.31v-8.1c0-.17,0-.35,0-.52.22-1.38.22-2.8,0-4.18,0-.17,0-.35,0-.52.15-.37.13-.68,0-1.04.05-5.3-1.8-14.21,4.18-16.45,6.44-.68,13.33-.93,20.66-.73,25.93.44,51.86.5,77.79.21,2.61.05,5.24,1.95,6.01,4.44Z"/><path class="cls-7" d="M121.07,157.75c-.07.13-.16.12-.26,0l.26-.26c.23.07.22.16,0,.26Z"/><path class="cls-7" d="M133.87,157.75c.68.14,1.16.77,1.29,1.45.35,1.86-.45,11.36.27,12.01.13.12.37.08.53.11,2.26-.15,4.53-.15,6.79,0,2.81.08,5.89-.76,6.28,2.99.18,1.8.24,9.87-.21,11.3-.66,2.09-3.78,1.57-5.54,1.64-1.03.24-2.1.22-3.13,0-.17,0-.35,0-.52,0-1.12.23-2.28.16-3.39,0-.61.09-.86-.14-1.05.65-.83,3.59,2.18,13.16-2.73,13.72-1.92.22-9.19.28-10.96-.03-1.06-.19-2.06-1.34-2.24-2.33l-.21-11.61c-2-.18-4.02-.31-6.06-.4-.26,0-.52,0-.78,0-.68.22-1.47.22-2.35,0-2.05-.08-4.08.44-4.96-2.09-.25-3.89-.26-7.85,0-11.75.33-.9,1.26-1.66,2.09-2.09,3.8-.18,7.63-.18,11.49,0,1.01-.2.7-.47.78-1.31-.09-3.58-.09-7.14,0-10.71.01-.09-.02-.18,0-.26l.26-.26c.23-.43.4-.53.78-.78l.78-.26c4.12-.28,8.6-.39,12.8,0Z"/><path class="cls-7" d="M111.15,119.36v.26c-.68.87-.59,1.04.26.52.37-.16.92-.14,1.04.26.1.12.19.12.26,0,.24-.38,1.07-.39,1.31,0,.22.13.4.13.52,0l3.15-.23c27.5.21,55,.3,82.5-.06l3.15.28c.53.3,1.14.3,1.83,0,.09-.52.94-.51,1.04,0-.67,3.77,1.1,1.07,1.8,1.6.4.3.37,1.89-.75,1.54l.52,1.04c-31.75.23-65.01.22-96.89,0-1.83-.37-2.05-.55-3.39-1.83,1.22-.87.67-.92-.26-.26-.41-.45-.75-.71-1.04-1.31,1.81.29.04-1.63.26-1.83.87-.78.54,1.01,1.16,1.03.95.03,1.65-1.03,2.49-1.56-.04-.37.04-.46.26-.26.33.07.68.45.78.78Z"/><path class="cls-7" d="M192.46,160.98c8.76-9.39,23.61,2.96,15.83,13.35-8.83,11.78-25.46-3.02-15.83-13.35Z"/><path class="cls-7" d="M185.22,194.21c-10.42,10.31-24.46-6.97-13.09-15.31,9.88-7.24,21.96,6.54,13.09,15.31Z"/><path class="cls-7" d="M171.21,149.65c-2.07-.03-4.16-.12-6.27-.26-.24-5.2-.17-10.88,0-16.19l3.39-.26c4.77-.19,8.98,1.41,9.63,6.69.6,4.85-1.22,9.81-6.76,10.02Z"/><path class="cls-7" d="M133.88,146.53c-.12.11-.23,2.56-.95,3.11-.3.23-3.59.66-3.49-.36l4.99-15.91c.46-.63,3.62-.6,4.22-.39.89.31,4.6,14.57,5.11,16.51-4.31,2.38-3.38-2.45-4.53-3.13l-5.36.18Z"/><path class="cls-7" d="M198.64,138.16c.33.2,2.85-4.67,3.13-4.83.3-.17,3.52-.25,3.66-.13.65.63-4.49,7.11-4.44,8.2.06,1.38,5.06,6.77,4.59,7.99-.28.71-2.82.62-3.43.28-.88-.49-2.94-5.23-3.38-5.24-.32,0-2.86,5.04-3.53,5.35-.52.24-3.18.19-3.39-.14-.45-.7,4.34-7.33,4.86-8.48l-4.6-7.96c4.31-.91,4.91,1.76,6.53,4.96Z"/><path class="cls-7" d="M186.1,132.94c.17,0,.35,0,.52,0,.67-.22,1.42-.25,2.09,0,.17.01.36-.03.52,0,.25-.14.42-.14.52,0,.43.37.62,2.94-.52,3.39-1.55.17-3.11.22-4.68.13-.41.15-.45,2.41,0,2.87,1.39-.07,2.78-.02,4.16.13,1.26.7.92,3.39-.13,3.39h-4.57v3.66h5.61c.57,0,.77,3.39,0,3.39h-8.88c-.85,0-.35-15.71-.13-16.97,1.82-.21,3.66-.23,5.48,0Z"/><path class="cls-7" d="M118.72,132.94c2.78-.05,5.57-.05,8.36,0,.7.57.69,2.82.26,3.39-1.46.28-2.97.17-4.44,0-.17,0-.36-.03-.52,0-.41.53-.54,2.78-.16,3,1.4-.07,2.76-.02,4.07.13,1.14,1.22,1.13,1.93.26,3.39-1.74.04-3.26.16-4.57.36v3.12s2.22.18,2.22.18c2.84.06,4.23-.65,3.54,3.15l-5.89.24.05-.27,5.17-.26c-2.91.27-5.79.27-8.62,0l-.19-.04c.02-5.38,0-10.76-.08-16.15.2-.17.23-.22.52-.26Z"/><path class="cls-7" d="M155.02,136.33c-1.67.12-3.35.13-5.04.01-.28.27-.43.7-.44,1.29-.01.17,0,.35,0,.52.2.49.21,1.1,0,1.57,2.17,1.03,5.67-1.33,4.97,2.5-.04.24-.1.9-.4.9h-4.57c-.21,1.22.39,5.88-.26,6.53-.65.16-2.98.23-3.25-.3l-.15-14.59c0-.34-.07-1.76,0-1.83.29-.3,7.87-.12,8.48.01,1.29.27,1.13,2.76.66,3.39Z"/><path class="cls-7" d="M110.36,133.46c.18,3.99.12,8.01,0,12.01,0,.09,0,.18,0,.26l.3.54c1.64.08,3.28.16,4.93.24.4.46.4,2.93,0,3.39-2.95.25-5.93.22-8.88,0-.05-.02-.24-.21-.26-.26-.25-3.65-.25-7.3,0-10.97,0-.09,0-.17,0-.26v-.78c.07-3.53-1.03-6.11,3.92-4.18Z"/><path class="cls-7" d="M153.39,200.9c1.3-.25,7.75-.26,9.02,0,2.97.61,2.81,4.91-.22,5.4-1.2.2-7.98.21-9.07-.04-2.66-.62-2.72-4.79.27-5.37Z"/><path class="cls-32" d="M208.03,32.13c-31.51,1.65-64.25-1.3-95.72.25-.94.05-1.87.45-2.73.27.64-.24,1.23-.58,1.95-.53h96.5Z"/><path class="cls-32" d="M207.77,124.58l.78.26c-.16.03-.36-.02-.52,0h-.26c-.17.01-.35,0-.52,0h-.26c-.2.31-.67.41-.78,0-.31.21-.72.2-1.04,0-.17.46-.63.47-.78,0-2.43.24-4.88.21-7.31,0-.15.5-.37.5-.52,0h-11.75c0,.68-1.19.63-1.31,0-.12.14-.29.14-.52,0-.15.5-.37.5-.52,0-.07.12-.16.11-.26,0-.24.51-.54.51-.78,0-1.47.23-2.97.21-4.44,0-.15.5-.37.5-.52,0-.07.12-.16.11-.26,0-.15.5-.37.5-.52,0-4.09.15-8.19.15-12.27,0-.17.34-.37.35-.52,0-.68.23-1.41.22-2.09,0-.09.41-.29.37-.52,0-1.56.16-3.15.26-4.7,0-.09.43-.29.39-.52,0-6.7.23-13.41.21-20.11,0-.16.19-.35.19-.52,0-.94.23-1.93.22-2.87,0-.16.19-.35.19-.52,0-3.33.16-6.63.16-9.92,0-.17.25-.37.25-.52,0-.41.21-.89.21-1.31,0-.16.35-.37.36-.52,0-.31.21-.72.2-1.04,0-.09.42-.29.38-.52,0-1.78.2-3.52.2-5.22,0-.56-.05-.72-.19-1.04-.26h96.89Z"/><path class="cls-34" d="M220.05,139.21V47.28c.06,30.64-.04,61.29,0,91.93Z"/><path class="cls-31" d="M161.29,133.2q-.67.7,0,0c.11.06.44-.06.52,0,.25,5.3.25,10.61,0,15.93-.48,1.22-3.61,1.01-4.18.26-.26-2.69-.19-5.4,0-8.1,0-.09,0-.17,0-.26-.22-1.82-.25-3.66,0-5.48.02-.57-.13-2.29.04-2.57.08-.14,3.04-.22,3.25-.19.26.04.3.38.37.41Z"/><path class="cls-32" d="M214.3,39.45c.42.08.37.58,0,.78.24.58.21,1.24,0,1.83.39.09.34.29,0,.52v9.92c.38.16.38.37,0,.52.08,17.32-.11,34.65,0,51.97.38.16.38.37,0,.52v7.83c.38.16.38.37,0,.52.01.35-.02.7,0,1.04.39.1.36.3,0,.52-.11,1.25.15,2.71,0,3.92V38.92c.01.17-.02.35,0,.52Z"/><path class="cls-34" d="M176.17,124.84c.1.12.19.12.26,0,.17,0,.35,0,.52,0,1.47.21,2.97.23,4.44,0,.26,0,.52,0,.78,0,.1.12.19.12.26,0,.17,0,.35,0,.52,0,.22.13.4.13.52,0h13.06c.17,0,.35,0,.52,0,2.43.21,4.88.24,7.31,0,.26,0,.52,0,.78,0,.33.19.72.2,1.04,0,.26,0,.52.01.78,0v.26c-.38.3-.44.25-.89.28-12.31.93-27.66.13-40.25-.01-.45,0-1.15.16-1.43-.27,3.73-.16,7.48-.25,11.23-.26.17,0,.35,0,.52,0Z"/><path class="cls-32" d="M118.2,133.2c1.07,1.24-.55,16.19.26,16.19h8.62l-5.22.52c-.17,0-.35-.01-.52,0l-2.87-.26c-.09-.01-.22.03-.26,0-.21-1.11-.3-2.25-.26-3.39,0-.17,0-.35,0-.52v-.26c.12-.1.12-.19,0-.26v-.78c.19-.33.2-.72,0-1.04v-.52c.22-.76.22-1.59,0-2.35v-.78c.22-1.91.16-3.84,0-5.75v-.52l.26-.26Z"/><path class="cls-32" d="M168.34,132.94c-.93.04-2.3.52-3.39.26v16.19c1.79-.01,3.59.02,5.39-.02.47-.01.84.28.88.28-.92-.19-6.29.67-6.54-.18l.06-16.09c.42-.88,2.7-.28,3.61-.44Z"/><path class="cls-34" d="M131.52,124.84c.94.22,1.93.23,2.87,0,.17,0,.35,0,.52,0,2.89.08,5.76.17,8.62.26h-21.68c3.04-.16,6.08-.24,9.14-.26.17,0,.35,0,.52,0Z"/><path class="cls-1" d="M145.88,134.77l.26,14.63,3.14.26c-.47.46-3.11.47-3.36-.17.03-4.9-.18-9.82-.04-14.72Z"/><path class="cls-23" d="M155.02,124.84c-.52.38-1.31.47-2.35.26-.09,0-.17,0-.26,0-1.73.24-3.49.22-5.22,0-1.22.01-2.44,0-3.66,0-2.85,0-5.8.22-8.62-.26,6.7-.07,13.41.06,20.11,0Z"/><path class="cls-34" d="M189.23,136.33c-1.32.52-3.27.25-4.7.26v2.61c1.24.17,3.06-.36,4.18.26h-4.7s0-3.14,0-3.14h5.22Z"/><path class="cls-34" d="M161.81,149.13v-15.93c.64.48.28,14.09,0,15.93Z"/><path class="cls-34" d="M110.36,133.46c0-.25-.73-.62.26-.52-.16,4.15.34,8.43-.26,12.53-.19-3.91-.08-8.08,0-12.01Z"/><path class="cls-32" d="M121.07,157.75c-.21.6-.75.24-.78.26.17-.06.37-.23.52-.26.08-.01.18,0,.26,0Z"/><path class="cls-32" d="M133.87,157.75c-2.14-.43-10.25-.17-12.8,0v-.26l12.8.26Z"/><path class="cls-34" d="M112.98,187.26c.93.02,5.92-.2,6.23.3.45.73-.3,9.82.04,11.71l-.38-11.51c-.5-.71-4.89.54-5.89-.51Z"/><path class="cls-34" d="M117.94,133.46c0,.17.01.35,0,.52.16,1.91.22,3.84,0,5.75,0,.26,0,.52,0,.78.22.78.22,1.57,0,2.35,0,.17,0,.35,0,.52.2.34.2.7,0,1.04,0,.26,0,.52,0,.78.12.07.11.16,0,.26,0,.09,0,.17,0,.26v-12.54.26Z"/><path class="cls-23" d="M175.65,124.84c-3.67.06-7.47.34-11.23.26-.09,0-.17,0-.26,0-.62.15-.89.07-.78-.26,4.09-.07,8.19.05,12.27,0Z"/><path class="cls-34" d="M104.88,185.17c-.46-1.32-.47-10.49,0-11.75v11.75Z"/><path class="cls-34" d="M214.3,105l.52-1.04v10.57s-.52-.65-.52-.65c0-.17,0-.35,0-.52v-7.83c0-.17,0-.35,0-.52Z"/><path class="cls-34" d="M118.46,171.33c-3.08.62-8.18-.46-11.49,0l-.13-.26c3.85.17,7.83-.34,11.62.26Z"/><path class="cls-34" d="M220.05,47.02v-11.23c.18,3.64,0,7.55,0,11.23Z"/><path class="cls-34" d="M117.68,124.84c.33.19.72.2,1.04,0,.17,0,.35,0,.52,0,.41.2.89.21,1.31,0,.17,0,.35,0,.52,0l.52.26c-1.77.21-8.19.71-9.4,0,1.63-.11,3.31-.2,4.96-.26.17,0,.35,0,.52,0Z"/><path class="cls-34" d="M106.45,149.65c-.81-1.51-.13-8.88,0-10.97v10.97Z"/><path class="cls-34" d="M119.24,170.02v-10.71c-.46,3.16.31,7.4,0,10.71Z"/><path class="cls-1" d="M105.4,83.58c0-2.26,0-4.53,0-6.79v-.26c0-.17,0-.35,0-.52-.16-1.05-.16-2.1,0-3.13v10.71Z"/><path class="cls-34" d="M126.56,142.86l.26.26h-4.71s0,3.14,0,3.14l2.09.26c-.78-.02-1.57.01-2.35,0v-3.66s4.7,0,4.7,0Z"/><path class="cls-34" d="M214.3,39.45l.52-.39v8.62s-.52-5.09-.52-5.09c0-.17,0-.35,0-.52.21-.58.24-1.24,0-1.83-.02-.26.02-.53,0-.78Z"/><path class="cls-31" d="M107.23,122.49c-.24-.91,1.67-1.73,2.35-1.83.18.77-.6.5-.91,1.05s.47,1.92-1.18,1.04c-.09-.08-.18-.17-.26-.26Z"/><path class="cls-23" d="M131,124.84c-2.97.05-6.07.36-9.14.26-.09,0-.18,0-.26,0-.22-.02-.43-.02-.52-.26h9.92Z"/><path class="cls-34" d="M115.59,149.91c-.38.43-8.08.42-8.88,0h8.88Z"/><path class="cls-34" d="M118.72,132.94h8.36c-2.64.24-5.79-.32-8.36,0Z"/><path class="cls-34" d="M122.38,136.33l-.26,2.87h4.44c-.02.13-.28.25-.26.26h-4.44s0-3.14,0-3.14c.17-.02.36.03.52,0Z"/><path class="cls-34" d="M214.3,52.5l.52-4.44v7.57c-.19-.07-.52-2.14-.52-2.61,0-.17,0-.35,0-.52Z"/><path class="cls-1" d="M105.4,111c-.04-2.69.02-5.4,0-8.1v8.1Z"/><path class="cls-34" d="M157.63,149.39c-.58-.76-.31-6.77,0-8.1,0,2.7,0,5.4,0,8.1Z"/><path class="cls-1" d="M105.4,63.21c.01-2.61-.01-5.23,0-7.83v7.83Z"/><path class="cls-34" d="M105.4,72.09c0,.26,0,.52,0,.78,0,1.04,0,2.09,0,3.13-.44-2.27-.44-5.07,0-7.31.19,1.13.19,2.26,0,3.39Z"/><path class="cls-34" d="M155.02,136.33c-.54.72-4.12-.06-5.07.24-.33.11,0,.9-.41,1.06.03-.37-.07-.76.04-1.13l.34-.37,5.1.19Z"/><path class="cls-34" d="M142.75,171.33c-1.86-.06-5.21.32-6.79,0,2.08-.44,4.74-.44,6.79,0Z"/><path class="cls-1" d="M105.4,97.42c0-2.17,0-4.36,0-6.53.4,2.01.55,4.56,0,6.53Z"/><path class="cls-34" d="M160.77,124.84c.68.21,1.42.23,2.09,0,.17,0,.35,0,.52,0,.15.33.49.25.78.26-1.61.44-3.89.44-5.48,0,.49-.17,1.01-.26,1.57-.26.17,0,.35,0,.52,0Z"/><path class="cls-1" d="M105.4,72.09c0-1.13,0-2.27,0-3.39v-3.13c.44,1.96.44,4.54,0,6.53Z"/><path class="cls-34" d="M155.54,124.84c.97.1,1.93.18,2.87.26-1.71.44-4.06.44-5.75,0,.86-.02,1.74-.24,2.35-.26.17,0,.35,0,.52,0Z"/><path class="cls-34" d="M110.36,25.08c.05,0,1.35.33.91.52h-5.61s4.18-.52,4.18-.52c.17,0,.35,0,.52,0Z"/><path class="cls-34" d="M110.36,145.74c.8,1.29,4.45-.1,5.22.78h-5.22c-.02-.26.03-.53,0-.78Z"/><path class="cls-1" d="M105.4,83.84c.37,1.17.33,2.6.45,3.87.05.5.38.96-.45.83,0-1.56,0-3.14,0-4.7Z"/><path class="cls-34" d="M157.63,141.03c-.44-1.61-.44-3.89,0-5.48-.06,1.82,0,3.66,0,5.48Z"/><path class="cls-34" d="M186.1,132.94c-1.82-.04-3.66.03-5.48,0,1.59-.44,3.87-.44,5.48,0Z"/><path class="cls-34" d="M152.41,125.1c-1.52.44-3.73.44-5.22,0,1.74-.02,3.49.04,5.22,0Z"/><path class="cls-23" d="M117.15,124.84c-1.55.06-3.32.49-4.96.26-.1-.06-.17-.18-.26-.26,1.67.15,3.53-.11,5.22,0Z"/><path class="cls-23" d="M160.24,124.84c-.26,0-.95.23-1.57.26-.09,0-.17,0-.26,0-.86.03-2.13.2-2.87-.26,1.56-.07,3.14.05,4.7,0Z"/><path class="cls-34" d="M214.3,114.92c.79-.15.5.4.52.9.04.96-.03,1.93,0,2.88l-.52-3.26c0-.17,0-.35,0-.52Z"/><path class="cls-34" d="M127.34,136.33c-.33.44-3.73.42-4.44,0,1.47-.08,2.97.05,4.44,0Z"/><path class="cls-1" d="M105.4,102.12c0-1.48,0-2.96,0-4.44.44,1.21.44,3.21,0,4.44Z"/><path class="cls-1" d="M105.4,54.85c0-1.39-.01-2.79,0-4.18.44,1.1.44,3.04,0,4.18Z"/><path class="cls-34" d="M139.61,187.26c-.86.44-2.57.44-3.39,0,.96-.14,2.35.02,3.39,0Z"/><path class="cls-23" d="M118.2,149.65c-.49-.3-.24-2.71-.26-3.39l.26,3.39Z"/><path class="cls-34" d="M214.82,59.29c-.6-.85-.1-2.39-.26-3.39.6.85.1,2.39.26,3.39Z"/><path class="cls-34" d="M143.27,187.26c-.77.45-2.4.44-3.13,0,1.04-.01,2.1.04,3.13,0Z"/><path class="cls-7" d="M121.33,149.91c-.84.05-2.15.18-2.87-.26.89.12,2.09-.31,2.87.26Z"/><path class="cls-34" d="M149.54,138.16c.47.18.16,1.19.26,1.31.11.12,1.31-.19,1.31.13l-1.57.13c-.01-.52.02-1.05,0-1.57Z"/><path class="cls-1" d="M214.3,38.4c-.52-.36-.81-1.39-.26-1.83.21.69.19,1.15.26,1.83Z"/><path class="cls-34" d="M112.19,187.26v.52s-2.35-.52-2.35-.52c.78.03,1.57-.02,2.35,0Z"/><path class="cls-23" d="M104.62,25.08v.26c-.78-.04-1.57,0-2.35,0,.58-.48,1.63-.26,2.35-.26Z"/><path class="cls-34" d="M188.71,132.94c-.69-.05-1.4.02-2.09,0,.42-.44,1.68-.44,2.09,0Z"/><path class="cls-1" d="M105.4,49.11l.53.91-.53.13c0-.35,0-.7,0-1.04Z"/><path class="cls-1" d="M105.4,64.78v-1.31c.41.18.41,1.13,0,1.31Z"/><path class="cls-1" d="M105.4,89.85c0-.35,0-.7,0-1.04.39.09.4.93,0,1.04Z"/><path class="cls-34" d="M214.82,103.43c-.15.37-.43-.61-.26-1.04.15-.37.43.61.26,1.04Z"/><path class="cls-34" d="M106.45,138.42c0-.22,0-.54,0-.78v.78Z"/><polygon class="cls-34" points="220.05 140.25 219.8 139.86 220.05 139.47 220.05 140.25"/><path class="cls-34" d="M189.75,132.94c-.05-.05-.36.03-.52,0l.39-.26.13.26Z"/><path class="cls-34" d="M119.24,159.05c.02-.09.22-.18.26-.26l-.26.26Z"/><path class="cls-34" d="M105.4,76.79c0-.09,0-.17,0-.26v.26Z"/><path class="cls-23" d="M117.94,133.46v-.26h.26c-.09.08-.17.18-.26.26Z"/><path class="cls-23" d="M207.77,124.84h.26c-.18.02-.23,0-.26,0Z"/><path class="cls-23" d="M206.99,125.1v-.26c.09,0,.17,0,.26,0-.08.09-.16.18-.26.26Z"/><path class="cls-7" d="M46.58,20.45c6.83-1.18,8.07,8.56,1.96,9.53-6.73,1.07-7.93-8.5-1.96-9.53Z"/><path class="cls-28" d="M88.56,38.92c.38.14.44.79.41,1.16v166.64c0,2.29-.93,2.79-3.01,3H15.42c-4.25-.39-7.61-3.43-7.95-7.72.02-46.95-.1-93.76.05-140.7.88-1.7,2.75-1.46,4.35-1.59,11.37-.92,24.58.41,36.2.12,4.55-.11,9.58.36,13.43-2.53,3.05-1.85,21.66-18.39,23.14-18.39.76,0,3.49-.16,3.92,0Z"/><path class="cls-1" d="M220.05,178.64c.79-.15.5.4.52.9.09,2.35.08,4.98,0,7.34-.02.5.27,1.05-.52.9.02-3.04-.01-6.1,0-9.14Z"/><path class="cls-31" d="M223.96,123.54c-.53-.82-.26-2.11-.26-3v-5.61c0-.07-1.53.08-.78-.52.28-.23.79.56,1.04-1.31.22,3.34-.04,7.05,0,10.45Z"/><path class="cls-31" d="M223.96,154.88c-.34-1.85-.7-4.25,0-6.01,0,2,0,4.01,0,6.01Z"/><path class="cls-31" d="M220.57,83.32l1.57,1.43-1.57-.39c0-.35,0-.7,0-1.04Z"/><path class="cls-31" d="M223.96,162.71c-.44-1.68-.44-4.04,0-5.75v5.75Z"/><path class="cls-31" d="M223.96,125.63c0,.78,0,1.57,0,2.35-.74-.83.44-2.23-1.05-2.22l1.05-.13Z"/><path class="cls-31" d="M223.18,105c.27.27-.52,1.05-.78.78s.52-1.05.78-.78Z"/><path class="cls-31" d="M220.57,106.82l.79.13c.12.57-.28.38-.79.39v-.52Z"/><path class="cls-31" d="M220.57,78.1l.79.13c.12.57-.28.38-.79.39v-.52Z"/><path class="cls-31" d="M223.96,156.44c-.39-.09-.4-.93,0-1.04,0,.35,0,.7,0,1.04Z"/><path class="cls-31" d="M220.57,104.21l.52.13c.08.48-.08.41-.52.39,0-.17,0-.35,0-.52Z"/><path class="cls-31" d="M223.96,129.54c-.39-.04-.39-.75,0-.78,0,.26,0,.52,0,.78Z"/><path class="cls-31" d="M223.96,124.58l-.26-.13.26-.39c0,.17,0,.35,0,.52Z"/><polygon class="cls-31" points="221.48 107.61 221.61 107.74 221.48 107.87 221.48 107.61"/><polygon class="cls-31" points="223.05 108.13 223.18 108.26 223.05 108.39 223.05 108.13"/><path class="cls-19" d="M209.08,37.88c.03.95.12,1.21.26.78,0,.03.17-.08.26.52l-.38,78.68-.4.97c.24.3.1.43-.26.26l-.63.39c-31.3.35-62.65.44-94.06.28-1.74.2-2.82-.28-3.25-1.45l-.35-2.49c-.11-25.81-.17-51.35-.17-76.63-.27-.23-.08-.88.26-1.04.7-.99,1.78-1.33,2.99-1.32l94.61.22c.39.25.81.48,1.12.84Z"/><path class="cls-19" d="M167.56,88.54c-.24-.03-.22-.12,0-.26.07-.23.16-.22.26,0,.13.41.13.47-.26.26Z"/><path class="cls-30" d="M209.6,118.05c-.28,1.8-1.81,2.21-3.39,2.35-.34.03-.7-.02-1.04,0-.88.42-1.49.42-1.83,0-29.27.64-59.48.37-88.79,0-.12.14-.29.14-.52,0-.43,0-.87.03-1.31,0h-.26c-.35-.03-.69-.22-1.04-.26-.69.11-.76-.02-.26-.52v-.26c.26.06.49.14.68.26,32.03.26,64.08.33,96.11-.14l.62-.38c.09-.07.18-.18.26-.26.11-.69.38-.95.78-.78Z"/><path class="cls-1" d="M110.36,38.14c-.22.32-.24.67-.26,1.04.03,15.75.03,31.51,0,47.27-1.22-1.63-.23-4.35-.24-6.14-.04-9.52-.36-19.24-.3-28.73.02-3.51-.24-7.58,0-10.98.07-.97.26-1.81.55-2.73l.24.26Z"/><path class="cls-6" d="M110.63,118.31c-.07.23-.16.22-.26,0-.34-.09-.39-.58-.43-.93-.1-1.03-.19-2.06-.2-3.11-.05-6.07-.06-12.58.12-18.63,0-.2.11-.39.24-.58,0-.26,0-.52,0-.78-.48-2.42-.29-4.88,0-7.31,0-.17,0-.35,0-.52-.03-15.24-.91-32.24,0-47.27.43.28.26.98.27,1.43.34,25.88-.48,51.86.26,77.7Z"/><path class="cls-6" d="M209.6,39.45c.23,25.56.23,52.46,0,78.08-.02.17.03.36,0,.52-.2.32-.53.52-.78.78l.78-79.65c.01.08,0,.18,0,.26Z"/><path class="cls-32" d="M209.86,117.53c-.23-25.56-.23-52.46,0-78.08v78.08Z"/><rect class="cls-23" x="209.6" y="39.45" width=".26" height="78.08"/><path class="cls-1" d="M110.1,95.07c.02,6.92-.61,15.38-.01,22.09.05.51.13.71.27,1.16.21.06.2.15,0,.26-.03.15-.15.19-.26.26-1.02-3.16-.28-6.63-.29-9.82,0-4.15.18-9.05-.16-13.11-.04-.5-.38-.96.45-.83Z"/><path class="cls-1" d="M110.1,94.29c-1.03-1.9-.49-5.24,0-7.31,0,2.43,0,4.88,0,7.31Z"/><path class="cls-6" d="M209.34,38.66l-.25.26v-1.05c.17.2.17.55.25.78Z"/><path class="cls-23" d="M131.52,197.7c-.4.8-7.84.57-8.24.02s.04-9.7-.12-11.37c-.09-.95-.24-2.75-1.43-2.75h-12.93v-8.36l13.42-.55c.57-.5.85-1.18.94-1.93.29-2.23-.52-10.09.12-11.37.36-.72,7-.74,7.71-.39,1.41.71-.33,12.16.92,13.45,1.45,1.5,12.06-.33,13.19.91.46.5.52,7.71-.27,8.1-1.32.66-9.34-.19-11.63.12-.45.06-1.69.51-1.69.92,0,1.74.29,12.6,0,13.19Z"/><path class="cls-31" d="M111.15,119.62c.04.16.26.41.26.52-.01,2.12-2.77-.37-.26-.52Z"/><path class="cls-31" d="M205.16,120.4l-1.43.79c-.58.13-.38-.28-.39-.79.61-.01,1.22.03,1.83,0Z"/><path class="cls-31" d="M109.84,121.97c.28.25-.53,1.06-.78.78-.39-.45.34-1.17.78-.78Z"/><path class="cls-3" d="M208.56,119.1c-.14.1-.23.46-.58.59-32.04.32-64.19.29-96.18.21-.43.05-.48-.4-.65-.54-.22-.17-.69-.56-.78-.78-.03-.07.03-.18,0-.26h.26c.54,1.25,2.08,1.19,3.25,1.32h92.73s1.95-.53,1.95-.53Z"/><path class="cls-31" d="M114.54,120.4l-.13.26-.39-.26c.17,0,.35,0,.52,0Z"/><path class="cls-31" d="M112.45,120.4c.09,0,.17,0,.26,0l-.13.26-.13-.26Z"/><path class="cls-23" d="M197.78,161.47c11.28-2.23,11.7,13.62,2.03,13.54-8.19-.07-8.3-12.3-2.03-13.54Z"/><path class="cls-23" d="M176.63,180.53c9.19-1.57,10.96,11.53,2.75,12.93-8.97,1.53-10.22-11.65-2.75-12.93Z"/><path class="cls-28" d="M171.21,146.26l-2.74-.23.03-9.56c.91.05,1.81,0,2.72-.13,4.27.32,4.26,9.7,0,9.92Z"/><path class="cls-34" d="M171.21,136.33c-.33-.02-1.93.57-2.61.26v9.25c.58-.03,2.29.43,2.61.41h-2.87v-9.92h2.87Z"/><polygon class="cls-28" points="138.83 143.39 134.65 143.39 137 137.12 138.83 143.39"/><path class="cls-23" d="M196.54,124.84h-11.75c3.91-.02,7.84.03,11.75,0Z"/><path class="cls-23" d="M204.38,124.84c-2.24.44-5.05.44-7.31,0,2.43-.02,4.88.05,7.31,0Z"/><path class="cls-23" d="M181.4,124.84c-1.21.44-3.21.44-4.44,0,1.48-.02,2.96.01,4.44,0Z"/><path class="cls-23" d="M134.39,124.84c-.65.44-2.19.45-2.87,0,.95-.02,1.92.01,2.87,0Z"/><path class="cls-23" d="M162.86,124.84c-.41.44-1.67.44-2.09,0,.69-.02,1.39.01,2.09,0Z"/><path class="cls-23" d="M120.55,124.84c-.18.41-1.13.41-1.31,0,.43,0,.87,0,1.31,0Z"/><path class="cls-23" d="M118.72,124.84c-.09.39-.93.4-1.04,0,.35-.01.7,0,1.04,0Z"/><path class="cls-23" d="M206.21,124.84c-.09.39-.93.4-1.04,0,.35,0,.7.01,1.04,0Z"/><path class="cls-23" d="M183.49,124.84l-.13.26-.39-.26c.17,0,.35,0,.52,0Z"/><path class="cls-23" d="M182.18,124.84c.09,0,.17,0,.26,0l-.13.26-.13-.26Z"/><path class="cls-23" d="M176.17,124.84c.09,0,.17,0,.26,0l-.13.26-.13-.26Z"/><path class="cls-7" d="M161.29,133.2v16.19c-.79-.09-2.38.3-2.9-.36l-.24-15.83h3.13Z"/><path class="cls-28" d="M214.3,113.35c-.07-2.6.02-5.23,0-7.83v7.83Z"/><path class="cls-28" d="M214.3,42.06c-.03-.6.04-1.23,0-1.83.43.34.43,1.48,0,1.83Z"/><path class="cls-23" d="M117.94,139.73c0-1.87-.13-3.91,0-5.75.44,1.68.44,4.04,0,5.75Z"/><path class="cls-23" d="M117.94,142.86c0-.78,0-1.57,0-2.35.44.5.44,1.85,0,2.35Z"/><path class="cls-23" d="M117.94,144.43c0-.35,0-.7,0-1.04.39.09.4.93,0,1.04Z"/><path class="cls-23" d="M117.94,145.47c0-.09,0-.17,0-.26l.26.13-.26.13Z"/><path class="cls-2" d="M58.92,70.79c3.34,5.81,5.83,9.66-.96,14.06-3.72,2.41-6.36,2.04-10.34.5-.81-.31-5.23-3.05-5.41-2.81-.99,1.31,6.4,7,2.74,11.75-8.01,10.41-15.78-.66-23.52-.02-1.55.13-2.12.6-1.93,2.21.49,4.18,7.49,4.08,9.79,7.46,2.92,4.29-4.98,9.39-5.84,6.08-.61-2.32,6.52-2.36,1.97-5.6-2.69-1.92-5.98-1.26-7.72-4.81-3.54-7.25,3.31-14.31,10.77-13.64,1.03.09,4.45,1.46,4.6,1.27.29-.37-3.37-5.49-1.18-8.89,2.04-3.18,8.66-6.44,12.48-5.93,1.1.15,4.7,1.92,4.9,1.76.13-.11-.95-2.35-1.04-3.27-.42-4.2,1.45-6.11,4.88-8.17,8.42-5.07,12.18.19,19.67,1.91,3.57.82,5.54-.02,4.94-4.16-.38-2.63-2.36-2.05-3.09-3.18-1.6-2.48,2.55-2.29,4.15-.76,4.19,4.01.14,13.35-4.26,15.85-5.38,3.05-10.35-.17-15.59-1.61Z"/><path class="cls-11" d="M76.68,84.63c.64-.53,1.58-2.77,2.81-1.5,1.01,1.04-.31,2.76-.98,3.59-.55.96-1.41,1.82-2.57,2.6,0,.43-.41.8-1.23,1.12-1.18,1.27-2.44,2.2-3.78,2.81l-.26.26c-.86.36-1.9.45-3.11.25-1.5-.01-.89,1.84.08,2.47.21,1.37.61,2.69,1.22,3.97l-.54,1.4c-.06.09-.19.16-.26.26-2.37,4.64-8.13,8.26-13.26,5.51-.56,0-1.09-.09-1.61-.24.3,1.12.46,2.24.5,3.36-.14,1.71.36,3.39-1.17,4.7-1.29,1.1-4.03.9-5.67.71-2.44-.28-7.29-2.58-8.93-2.52-2.51.08-5.85,4.13-7.14,4.37-.89.17-1.73-.81-1.64-1.64.15-1.33,6.18-5.3,7.51-5.56,2.14-.42,7.4,2.08,7.64,1.77.53-.69-2.53-7.3-2.02-9.73.4-1.93,5.99-6.74,7.83-7.07,1.49-.27,4.41.9,5.95,1.4l.24-.17c.45.39,1.03.66,1.36.02-.54-1.71-.83-3.45-.88-5.22l.34-.11c.46-2.46,1.69-3.17,3.53-4.69,2.05-1.69,2.95-2.48,5.61-2.88l2.1.14c2.9,1.02,5.68,1.23,8.35.65Z"/><path class="cls-34" d="M68.06,101.86c.46,1.16-1.75,2.95-2.55,3.66-2.94,2.6-5.78,3.5-9.73,2.72-.16-.03-.38-.56-.91-.64-1.89-.29-.86,1.4-.9,2.25-.02.36-.27.58-.27.63l-1.31-4.18c2.62.75,5.28,2.27,8.11,1.71,2.65-.52,6.1-4.04,7.56-6.15Z"/><path class="cls-34" d="M66.23,83.84c3-.45,4.51.8,7.48,1,.91.06,2.03-.26,2.97-.22-.18.15-.09.41-.65.52-3.09.59-6.72-1.04-9.8-1.3Z"/><path class="cls-34" d="M78.5,86.72c.47.31.8.02.16.55-.41.34-2.68,1.94-2.76,2.1-.1.2.34.67.25.75-.05.04-.76-.06-1.2.24-1.2.81-2.6,3.12-4.52,3.56-1.57.36-4.46-.7-3.3,1.71.12.25,1.23-.03,1.42.67.14.51-.43.95-.44,1.48,0,.95,1.18,2.26,1.19,2.39,0,.14-.82,1.16-.99,1.44.96-1.43-2.65-8.04-2.35-8.36.17-.17,2.98.77,4.7.26l.26-.26c2.36-1.77,5.75-4.27,7.57-6.53Z"/><path class="cls-34" d="M57.09,91.42c-.45,2.41,1.3,6.06,1.04,6.26-.16.13-1.69-.65-2.09-.78l.26-.64c0,.52.81.88,1.04.64.21-.22-1.37-4.92-.78-5.87l.52.39Z"/><path class="cls-34" d="M30.19,156.97c-.99-.8-1.9-1.54-2.35-2.61l2.35,2.61Z"/><path class="cls-2" d="M159.72,43.89c6.67-1.61,13.2,3.2,18.67,6.27.17-1.39-.78-2.64-1.87-3.35-1.23-.8-3.03-.63-3.17-2.33-.24-2.88,5.25.29,6.35,1.76,2.5,3.33,1.05,6.75-1.99,8.99-5.79,4.26-11.53-1.86-17.21-3.24,1.93,4.77,9.06,10.36,3,14.88-5.43,4.05-11.73-.38-17.1-2.09,2.86,5.68,8.43,9.35,1.43,14.61-3.44,2.59-6.69,1.95-10.57.92-2.67-.7-13.54-5.88-10.58,1.44.74,1.83,4.01,3.46,4.26,4.64.15.7-.42,1.58-1.12,1.61-1.49.07-5.13-3.91-5.88-5.21-1.23-2.89-.75-5.83,1.04-8.36,3.26-5.42,8.58-5.77,14.1-3.66-3.95-5.74-2.78-9.25,2.61-13.06,1.03-1.1,3.25-2.32,4.7-2.09l.78-.26c1.18-.13,2.42-.05,3.74.25l.37-.42c-1.31-3.6-.62-5.26,2.19-7.65,1.67-1.43,4.11-3.42,6.25-3.67Z"/><path class="cls-31" d="M133.35,99.51c1.42.94,2.67,1.98,3.92,3.13.79-.87,1.66-1.65,2.61-2.35,1.88-1.42,3.87-3.37,6.4-3.13,1.96.18,6.77,3.13,8.75,4.18l5.64,2.83c2.76-1.43,5.49-2.9,8.2-4.4.79-.42,1.56-.91,2.35-1.31,2.65-1.47,5.3-1.65,8.25-1.53,4.55.12,9.08.15,13.6.09.8.2.93,1.79.87,2.48-.13.31-.46.69-.78.78-5.74.07-11.49.07-17.24,0,.23.07.22.16,0,.26-.4.16-.83.25-1.31.26-.75.21-9.42,4.74-9.66,5.23-.17.33,6.01,3.42,6.53,3.65,2.53,1.82,5.54,2.08,8.64,2.01,3.6-.18,7.2-.27,10.8-.27,1.33-.16,2.25.13,2.76.87.44.74.25,2.05-.67,2.37l-14.84.17c-3.89-.13-6.32-1.18-9.82-2.81-.57.03-1.6-.54-1.83-1.04-2.03-1.22-4.16-2.21-6.38-2.97-4.03,2.13-8.11,4.2-12.23,6.19-1.54.68-2.85.61-4.37-.1-1.55-.86-5.76-5.66-6.17-5.72-.39-.06-4.76,4.15-6.1,4.94-1.87,1.33-6.98,2.57-5.16-1.2,1.56-.85,3.02-1.75,4.38-2.72.57-.4,4.21-3.61,4.16-4.01-.06-.46-4.25-3.49-4.96-3.93-.95-.59-2.07-.64-2.59-.94-3.11-2.01-.99-4.62,2.17-3.03l4.1,1.99Z"/><path class="cls-11" d="M188.19,68.96c-1.48.82-3.3,1.65-4.96,1.04l-.26-.26c-1-.05-1.17.65-.52,2.09.46,1.55,1.04,3.15.76,4.81-.42,2.53-5.34,6.58-7.81,6.94l-.28.3c-2.92.25-5.52-.75-8.12-1.92-.81-.16-1.05.28-.79,1.04.9,1.79,1.35,3.56,1.36,5.29,0,.09,0,.17,0,.26,1.24,2.68-2.64,5.74-4.7,7.05-5.22,3.65-9.25.37-14.49-1.57-1.28-.47-6.95-1.85-7.28-2.68-.35-.87.03-1.13.48-1.76.54-.76,5.19-4.69,5.99-4.98,3.52-1.23,6.87,1.85,9.68,2.37.58.11-.04-1.51-.13-1.83-1.28-2.41-2.63-5.87-.78-8.36,1.08-1.26,3.82-3.41,5.22-4.44,1.73-1.57,4.28-2.2,6.27-1.04.09.01.18-.01.26,0,1.05.14,2.1.46,3.17.96l.47-.28c-.77-2.25-1-4.83.28-6.95.81-1.02,6.9-5.81,7.98-5.99.75-.12,1.48,0,2.22.1,1.31.19,9.28,2.74,10.51,3.33.69.33,1.32.66,1.18,1.58-.09.64-4.83,4.31-5.7,4.89Z"/><path class="cls-7" d="M175.39,111.26c5.73-.3,11.47-.32,17.22-.06l.8.33c.1.09.48.66.52.78-.07.23-.16.22-.26,0-.58.13-.39-.49-.9-.54-5.7-.63-14.65,1.29-19.7-.93l-1.6-1.14c1.04.47,2.89,1.43,3.92,1.57Z"/><path class="cls-3" d="M159.72,43.89c-1.98.48-6.92,3.94-8.06,5.65-1.83,2.74.21,6.14-.04,6.36-.16.15-3.53-.55-4.44-.52l-.78.26c-1.57.26-3.41,1.18-4.7,2.09-.51-.09.55-.83.6-.85,1.85-1.07,3.35-1.83,5.54-1.87.61,0,3.13.46,3.26.37.23-.17-1.51-3.03-.12-5.47.76-1.34,5.83-5.32,7.36-5.95.37-.15,1.1-.56,1.38-.06Z"/><path class="cls-32" d="M168.34,112.05l7.43,2.62c2.24-.28,16.98.51,17.66-.44.31-.42.23-1.39.24-1.92h.26c.36,1.06.13,1.9-.78,2.61-.26.16-.44.16-.52,0-5.56-.45-12.06.6-17.5,0-2.34-.1-4.95-1.62-6.79-2.87Z"/><path class="cls-32" d="M175.13,96.9c5.99-.26,12-.26,18.02,0,1.03.49,1.2,1.65.78,2.61l-.7-2.36h-17.97s-4.05,1.32-4.05,1.32c1.46-.73,2.16-1.38,3.92-1.57Z"/><path class="cls-1" d="M143.53,114.14c.68-.18,1.42.45,2.22.47,3.1.05,11.02-5.63,14.38-6.74l2.3.82,4.08,2.32c-1.94-.81-3.99-1.66-6.15-2.54l-5.08,2.28c-2.46,1.22-7.76,4.49-10.25,4.11-.74-.11-.97-.43-1.5-.72Z"/><path class="cls-6" d="M175.91,100.56c5.55-.21,11.12-.21,16.71,0l-18.02.26c.44-.12.85-.21,1.31-.26Z"/><path class="cls-6" d="M193.15,96.64c-5.97.19-11.98.19-18.02,0h18.02Z"/><path class="cls-6" d="M193.41,111.52c-5.61-1.03-12.49.48-18.02-.26.28-.43.98-.26,1.43-.27,4.37-.06,11.66-.57,15.69,0,.78.11.54.22.9.54Z"/><path class="cls-26" d="M193.15,96.64v.26c-5.75.44-12.37-.59-18.02,0v-.26h18.02Z"/><path class="cls-21" d="M193.15,100.3c-.13.04-.35-.02-.52,0-5.54.23-11.12.23-16.71,0h17.24Z"/><path class="cls-3" d="M193.15,114.92c-.63.49-.62.45-1.42.53-4.8.52-10.52-.41-15.42-.01l-.91-.26c5.37-.26,11.02.32,16.35.02.5-.03.59-.19.88-.28.14-.04.36.03.52,0Z"/><path class="cls-28" d="M192.63,100.3v.26c-5.34.41-11.48-.55-16.71,0v-.26c5.24-.47,11.61.64,16.71,0Z"/><path class="cls-3" d="M172,65.04c-1.21,2.65-.6,5.2.26,7.83l-4.18-1.57s.2-.29.57-.22c.4.08,2.73,1.12,2.82,1,.23-.29-.36-.92-.41-1.23-.32-2.01-.37-4.15.94-5.82Z"/><path class="cls-3" d="M166.51,111c.54.26,1.18.74,1.83,1.04,1.84.85,4.98,2.67,6.79,2.87-.47.44-1.73-.05-2.23-.25-4.09-1.65-8.1-4.48-12.34-5.97l-5.28,2.05c.93-.46,4.48-2.59,5.09-2.59.34,0,5.28,2.45,6.14,2.85Z"/><path class="cls-1" d="M133.35,99.51c-1.51-.35-7.65-4.31-7.59-.92.02,1.3.57,1.08,1.23,1.55.13.1.07.41.09.42-1.19-.31-1.27-.56-1.57-1.57-.15-.34-.2-.71,0-1.04.97-2.84,6.33.57,7.83,1.57Z"/><path class="cls-3" d="M124.99,74.44c-1.69,2.81-1.89,5.2-1.04,8.36-1.14-1.97-.79-3.1-.77-5.34l1.81-3.02Z"/><path class="cls-3" d="M157.11,85.15c-.65.14-.82-1.07-.98-1.51-.86-2.42-1.64-4.72.19-6.85-1.74,2.83.05,5.62.78,8.36Z"/><path class="cls-3" d="M175.39,83.58c.15.78-.4.51-.9.52-1.61.05-3.2-.3-4.72-.78-.76-.24-3.43-2.14-3.47-.72-.02.67,1.44,3.7,1.65,4.77.05.27-.16.65-.13.9h-.26c-.19-2.38-1.49-5.09-2.35-7.31,3.27,1.47,6.44,3.16,10.18,2.61Z"/><path class="cls-3" d="M167.82,88.28c.03.26.45.41.35,1.26-.25,2.06-2.64,4.19-4.15,5.52-.11.1-1.04.96-1.17.53.98-.69,3.83-3.21,4.28-4.21s.47-1.73.42-2.84l.26-.26Z"/><path class="cls-3" d="M161.55,72.35c2.14-1.56,2.31-2.1,5.29-1.75.41.05,1.15.06.98.71-2.78-.38-3.64-.84-6.27,1.04Z"/><path class="cls-3" d="M188.19,68.96c-2.05,1.36-3.51,1.72-6.01,1.05l.26,1.83c-.48-1.6-1.71-2.77.52-2.09l.26.26c1.99.29,3.23-.29,4.96-1.04Z"/><path class="cls-1" d="M130.47,109.44c.55.16-.91.96-.97.99-1.66.98-6.02,2.39-2.29,4.21l4.04-1.29c-.84.5-2.06,1.38-3.02,1.55-1.72.31-3.22-.5-2.71-2.4.21-.78,4.02-2.41,4.95-3.06Z"/><path class="cls-3" d="M168.86,99.77c-1.12.6-7.75,4.7-8.23,4.7-.41,0-4.79-2.69-5.61-3.13l5.85,2.61c2.4-1.22,4.72-2.59,7.04-3.96.18-.11.88-.68.95-.22Z"/><path class="cls-26" d="M125.51,98.99c-.04-.14-.29-.24-.27-.63.01-.24.24-.34.27-.42v1.04Z"/><path class="cls-3" d="M139.87,100.3l-2.61,2.35c.63-1.07,1.67-1.64,2.61-2.35Z"/><path class="cls-27" d="M36.46,77.83c6.04-6.14,11.25-.82,17.06,1.61.74.31,4.85,1.4,4.87,1.65.07.91-4.51,3.06-5.83,2.99-4.51-.26-11.04-6.08-16.1-6.25Z"/><path class="cls-27" d="M42.2,93.25c.5.31-.24.51-.33.6-5.59,5.4-10.03.11-15.65-1.46-1.61-.45-2.92-.5-4.52-.71-.23-.03-.88.16-.65-.39.1-.23,1.43-1.46,1.74-1.66,5.25-3.51,12.81,1.68,17.89,3.44.46.16,1.44.13,1.52.18Z"/><path class="cls-27" d="M75.11,67.91c-4.87,7.32-14.62-1.07-21.08-1.77-1.13-.5,2.25-2.03,2.86-2.22,6.72-2.1,11.82,3.71,18.22,3.99Z"/><path class="cls-10" d="M43.51,90.89c-.57.44-5.9-1.86-6.67-2.6-1.05-1.01-3.72-6.27-2.95-7.54.21-.34,4.33-.18,4.78.49l4.84,9.65Z"/><path class="cls-10" d="M59.44,78.1c-.53.51-5.29-1.03-5.93-1.64-.85-.81-3.63-6.18-2.62-7.17.54-.53,3.78-.16,4.37.33.36.3,4.53,8.15,4.18,8.48Z"/><path class="cls-24" d="M65.18,102.13c-2.59,2.45-5.19,4.59-8.93,3.06l-10.13-3.71c1.39-1.01,2.98-3.25,4.82-3.29,3.86-.08,9.99,4.2,14.24,3.94Z"/><path class="cls-15" d="M49.45,105.59c.49.46,2.01,5.85,1.9,6.58-.25,1.69-3.77,1.78-4.14,1.15-.1-.17-.43-3.06-.69-3.88-.23-.71-2.16-5.03-1.96-5.22.19-.18,4.56,1.07,4.89,1.37Z"/><path class="cls-24" d="M73.8,87.76c-1.33,1.23-3.1,3.24-5,3.48-2.55.33-5.66-2.01-8.32-.87l2.38-2.19c3.23-3.62,6.95.09,10.94-.42Z"/><path class="cls-15" d="M63.08,92.74l2.63,7.03c-4.77-.09-5.39-2.04-6.26-6.24l3.63-.79Z"/><path class="cls-28" d="M70.67,93.51c.09-.08.16-.19.26-.26-.06.1-.16.23-.26.26Z"/><polygon class="cls-28" points="53.96 107.6 53.43 107.61 53.44 107.09 53.96 107.6"/><rect class="cls-28" x="67.8" y="96.38" width=".26" height=".52"/><path class="cls-27" d="M163.12,63.48c-3.12,5.97-11.3.42-15.99-1.12-1.63-.53-3.32-.91-5-1.24l-.16-.52c6.99-6.33,14.07.84,21.15,2.87Z"/><path class="cls-27" d="M156.33,48.58c3.78-3.97,8.82-2.59,13.23-.56.92.42,7.46,4.13,7.39,4.59-.07.39-1.6,1.47-2.07,1.59-3.73.96-8.66-2.9-12.29-4.17-1.97-.69-4.18-1.35-6.26-1.45Z"/><path class="cls-27" d="M147.71,76.01c-3.91,5.28-10.57,1.27-15.5-.05l-4.87-.87c5.18-6.65,14.03-.37,20.37.91Z"/><path class="cls-10" d="M148.75,73.66c-.48.44-5.44-1.53-6.17-2.18-2.45-2.19-6.84-10.54.56-7.48-.06,1.35,6.03,9.29,5.61,9.66Z"/><path class="cls-27" d="M157.83,51.52c-.25,1.35,5.16,8.75,4.76,9.07-.29.24-6.61-2.7-7.03-3.02-.78-.62-2.85-5-2.34-5.82.13-.21,4.1-.79,4.61-.23Z"/><path class="cls-19" d="M147.19,55.38c-.15.36-.51.22-.78.26.14-.33.49-.25.78-.26Z"/><path class="cls-19" d="M155.54,105.78l.26.32c-.61.52-1.31.93-2.09,1.24-.27.16-.51.37-.78.52-1.64.66-3.21,1.45-4.7,2.35-.68.3-1.77,1.11-2.54.85-.68-.23-5.48-5.08-5.54-5.46-.08-.57,4.82-4.91,6.24-4.68,1.18.19,7.81,3.97,9.15,4.85Z"/><path class="cls-3" d="M155.54,105.78c.27.18.83.12.78.52l-2.61,1.05c.67-.41,1.71-.88,1.83-1.57Z"/><path class="cls-3" d="M152.93,107.87c-1.37.78-3.25,1.7-4.7,2.35l.87-.83,3.83-1.52Z"/><path class="cls-24" d="M163.38,91.68c.04.56-.92,1.1-1.33,1.41-.5.38-1.88,1.36-2.4,1.52-4.2,1.27-10.65-3.94-15.08-4.37,3.38-2.95,3.69-3.86,8.23-2.49,3.52,1.07,6.87,3.54,10.57,3.92Z"/><path class="cls-24" d="M179.31,78.1c-1.41,1.86-3.64,3.49-6.14,3.13l-12.92-4.7c1.45-.65,2.85-2.32,4.33-2.85,3.93-1.4,10.38,4.68,14.73,4.42Z"/><path class="cls-24" d="M175.91,65.3c.69-.88,3.6-3.56,4.58-3.64.48-.04,9.22,2.51,9.25,2.99.02.22-3.35,2.42-3.72,2.54-3.07.99-6.99-1.67-10.11-1.89Z"/><path class="cls-15" d="M165.2,89.59l-4.64-1.36c.02-1.34-3.11-7.85-2.41-8.56.18-.18,3.83,0,4.31.53.28.3,2.53,7.04,2.68,7.76.11.54.07,1.09.06,1.63Z"/><path class="cls-15" d="M180.88,75.75c-.43.42-4.88-.72-5.49-1.43-.57-.66-2.37-6-1.57-6.55.58-.4,4.23.36,4.71.8s2.67,6.87,2.35,7.18Z"/><path class="cls-19" d="M183.23,70c-.11-.02-.22-.15-.26-.26.11.03.2.17.26.26Z"/><path class="cls-25" d="M18.43,40.83c-16.13-6.03-7.99-27.81,7.19-22.99,10.25,3.25,10.78,18.64.64,22.47-2.51.95-5.21.97-7.83.52ZM14.77,25.95c-.04.1-.31.24-.39.51-.62,1.96-.7,4.61.65,6.28,2.3,6.13,12.69,4.95,14.04-1.76,1.88-9.33-10.66-13.58-14.3-5.03Z"/><path class="cls-18" d="M26.27,40.31c.57.37-.24.29-.53.39-2.54.81-4.77,1.09-7.31.14,2.62.45,5.33.42,7.83-.52Z"/><path class="cls-8" d="M15.04,32.74c-.83-2.2-.77-4.54-.26-6.79,3.64-8.55,16.18-4.29,14.3,5.03-1.35,6.71-11.74,7.88-14.04,1.76ZM18.36,23.66c-3.65.74-3.86,6.85.2,7.25,6.27.62,5.28-8.36-.2-7.25Z"/><path class="cls-17" d="M15.04,32.74c-1.35-1.67-1.28-4.31-.65-6.28.09-.27.35-.41.39-.51-.51,2.25-.57,4.59.26,6.79Z"/><path class="cls-14" d="M18.36,23.66c5.48-1.11,6.47,7.87.2,7.25-4.06-.4-3.85-6.51-.2-7.25Z"/><path class="cls-9" d="M63.8,177.01v.26l-.13.26h13.32s-.91-.26-.91-.26v-.26c.9.02,2.69-.18,3.39,0,.07.02.39.4.52.52-.43.3.45.63.53,1.19.09.67-.46,1.81-1.05,2.07s-1.38-.1-1.83.39c-.17,0-.35,0-.52,0-4.95-1.15-10.43-.23-15.54-.52-.31,0,.13.23.13.26,0,.32-.67.26-1.04.52-.87.62-3.88,3.79-4.57,4.69-.22.29-.51.54-.56.92.06.94,4.12,4.14,4.88,5.09.08.1.23.4.26.52,0,.02-.25.12-.27.25,1.9.71,4.01.04,5.87,0,3.56-.07,9.48-.43,12.79.04,1.64.23.64,1.27,1.71,2.06-.06.77-.36.44-.62.78-.09.12.08.44.03.48-.13.11-.42,0-.45.04l-18.8.26c-2.3-.37-6.65-4.89-8.1-6.79,0-.01.2-.15.12-.26-.29-.46-1.05-.68-1.58-.76-1.4-.2-6.45-.23-7.8-.01s-2.87,2.35-3.8,3.38c-1.47,1.61-3,3.89-5.41,4.38-2.83.58-8.97.02-12.22.05-.44,0-1.16-.17-1.43.27-1.3,0-2.62-.02-3.92,0-.44-.45-1.17-.19-1.77-.45-1.41-.63-.95-3.12.39-3.67l13.66-.05c.52.01,1.05-.01,1.57,0,.09,0,.17,0,.26,0,.88.01,2.15.13,2.95-.06.88-.2,1.01-.83,1.49-1.25.09-.08.17-.17.26-.26.52-.51,1.24-.88,1.31-1.57.61-.58,2.42-2.17,2.32-2.94-.05-.39-2.78-3-3.36-3.59.47-.04-.18-.72-.28-.83-.23-.26-1.56-1.52-1.68-1.52h-7.44v.26c1.13.02,2.27-.02,3.39,0-1.57.48-3.55.26-5.22.26l.39-.52-9.35.21c-2.34-2.4-.83-3.45,1.99-3.5,5.62-.1,11.32.35,16.95.23,3.58.36,5.68,5.96,8.56,6.98.33.12.36.23.88.28,1.95.18,5.08.09,7.09-.01.36-.02,1.01.17,1.17-.27v-.26c2.5-1.8,4.72-5.47,7.51-6.72.32-.15,1.54-.57,1.63-.59.68-.11,1.61.03,2.35,0Z"/><path class="cls-16" d="M35.33,177.27c1.97.62,2.75,2.33,4.01,3.56.48.47,3.57,3.48,3.83,3.49v.26c-2.87-1.03-4.97-6.63-8.56-6.98-5.63.12-11.34-.33-16.95-.23-2.82.05-4.33,1.1-1.99,3.5l9.35-.21-.39.52c-2.56,0-6.08.29-8.49,0-.74-.09-1.13-.37-1.69-.79-.45-.78-.5-1.52-.13-2.35.4-.91.97-.63,1.18-1.04,5.88.37,12.35-.49,18.16-.01.48.04,1.25.13,1.69.27Z"/><path class="cls-4" d="M66.41,192.68c4.3-.01,8.61,0,12.92,0,1.02.31,1.53,1.33,1.44,2.34-1.07-.79-.07-1.83-1.71-2.06-3.31-.47-9.23-.11-12.79-.04-1.86.04-3.97.71-5.87,0,.02-.13.27-.23.27-.25,1.91.1,3.83,0,5.75,0Z"/><path class="cls-16" d="M52.83,189.81c-.47-.28-.87-.47-1.43-.53-1.48-.15-6.78-.24-8.1.01-1.1.21-2.54,2.28-3.53,2.87.94-1.03,2.43-3.16,3.8-3.38s6.4-.19,7.8.01c.53.08,1.29.29,1.58.76.07.12-.13.25-.12.26Z"/><path class="cls-12" d="M79.73,196.34c-.11.12-.15.42-.26.52h-2.35c-.27-.43-.99-.26-1.43-.27-4.57-.06-9.78.37-14.24,0-.17-.01-.36.03-.52,0l18.8-.26Z"/><path class="cls-13" d="M77.12,196.86h-15.67v-.26c4.45.36,9.67-.06,14.24,0,.44,0,1.16-.17,1.43.27Z"/><path class="cls-4" d="M79.99,177.54c1.66,1.51.49,3.6-1.31,3.92-.18-.39-.7-.25-1.04-.26.44-.49,1.21-.12,1.83-.39s1.15-1.41,1.05-2.07c-.08-.56-.96-.89-.53-1.19Z"/><path class="cls-4" d="M29.85,180.93c-1.13-.02-2.27.02-3.39,0v-.26s7.44,0,7.44,0c.12,0,1.45,1.25,1.68,1.52.09.11.75.79.28.83-.54-.54-.82-1.12-1.57-1.57-1.39-.83-2.87-.49-4.44-.52Z"/><path class="cls-4" d="M77.12,181.19c-.95,0-1.92,0-2.87,0-.27-.43-.99-.26-1.43-.27-3.44-.04-6.88,0-10.32,0h-.78s-.44-.27-.13-.26c5.1.3,10.58-.63,15.54.52Z"/><polygon class="cls-12" points="76.07 177.27 76.98 177.54 63.67 177.54 63.8 177.27 76.07 177.27"/><path class="cls-20" d="M76.07,177.01v.26h-12.27v-.26c3.98-.15,8.28-.08,12.27,0Z"/><path class="cls-33" d="M44.21,184.59c2.69.05,5.4-.03,8.1,0-.15.43-.81.25-1.17.27-2.01.11-5.13.19-7.09.01-.53-.05-.56-.16-.88-.28.35,0,.7,0,1.04,0Z"/><path class="cls-5" d="M74.24,181.19c-3.43,0-6.88.05-10.32,0-.44,0-1.16.17-1.43-.27,3.43,0,6.88-.05,10.32,0,.44,0,1.16-.17,1.43.27Z"/><path class="cls-25" d="M30.92,139.38c1.46-1.12,2.1-1.78,4.18-1.77,1.74,0,3.74,2,4.65,1.74.36-.1,1.98-3.3,1.98-3.68,0-.69-2.3-2.74-2.82-3.72-.79-1.49-.81-2.99.84-3.85,3.3-1.72,4.51,3.59,5.59,5.63,1.04-.1,4.3.42,4.89-.32,1.03-1.31,1.33-5.06,3.52-5.47,3.15-.59,3.65,2.28,2.31,4.56-.48.81-2.43,2.45-2.42,3.18.4.62,1.76,3.56,2.17,3.68.84.24,1.88-.95,2.68-1.29,2.49-1.09,6.25-.04,6.61,3.01.31,2.68-.39,4.8-3.32,5.22-3.17.46-5.12-1.37-4.55,3.43,2.72-.22,6.91-.82,7.88,2.57,1.2,4.23-1.55,6.67-5.69,5.91-1.31-.24-2.07-1.64-3.44-1.74-.59.02-.95,1.38-1.26,1.87s-.92.76-1.05,1.35c.06.64,2.31,2.67,2.76,3.54,1.17,2.24.69,5.3-2.41,4.65-2.38-.5-2.79-4.3-3.91-6.03-1.72.59-3.07.28-4.81.11-1.09,2.29-1.8,6.62-5.22,5.92-1.02-.21-1.64-1.07-1.74-2.08-.32-3.12,3.64-4.75,3.59-6.07,0-.28-1.92-3.17-2.17-3.23-2.57.91-3.55,2.55-6.64,1.71-3.8-1.03-3.87-7.07-.75-8.27,1.69-.65,5.34-.05,5.75-.32s-.21-2.33-.04-2.9c-.08-.29-.28-.32-.53-.37-3.22-.59-4.01,1.19-6.86-1.8-.67-1.82-.55-3.42.22-5.17ZM42.6,140.06c-1.7,3.53-1.98,7.62-1.35,11.46.59,3.61,2.77,8.95,7.25,8.26,2.45-.38,3.94-3.33,4.89-5.34,1.87-3.96,1.6-8.3.45-12.59-.26-.04-.21.22-.22.22-.22,0-1.42-3.17-2.03-3.93-3.23-4.05-7.06-2.1-8.99,1.91ZM34.23,140.55c-1.49.3-1.67,2.41-.39,2.99.91.41,5.62.08,4.27-1.35-.39-.41-3.25-1.77-3.88-1.65ZM60.76,140.55c-.42.07-3.51,1.72-3.67,1.98-.08,1.05,2.14,1.37,2.94,1.37,3.29-.01,2.91-3.71.73-3.35ZM33.22,155.07c.9.9,3.78-.4,4.44-1.19,1.38-1.63-2.88-1.92-3.88-1.64s-1.13,2.25-.56,2.82ZM59.18,152.26c-.72.11-1.55.35-1.73,1.14,1.03,1.44,5.41,3.62,5.1.31-.15-1.65-2.1-1.65-3.37-1.45Z"/><path class="cls-18" d="M30.69,144.55s-.31.08-.41-.03c-.34-.4.12-1.75-.72-1.88.8-.18.34-.89.46-1.56.1-.53.57-.88.24-1.45.21-.08.48-.11.65-.24-.77,1.75-.89,3.35-.22,5.17Z"/><path class="cls-8" d="M53.62,142.08c.86,4.13,1.1,8.3-.22,12.36-.95,2.01-2.44,4.96-4.89,5.34-4.47.69-6.65-4.65-7.25-8.26.62-.35,0-1.21,0-1.46v-4.05l1.35-5.96c1.93-4.01,5.76-5.96,8.99-1.91.61.76,1.81,3.92,2.03,3.93Z"/><path class="cls-22" d="M60.76,140.55c2.18-.36,2.56,3.33-.73,3.35-.79,0-3.01-.32-2.94-1.37.15-.26,3.25-1.91,3.67-1.98Z"/><path class="cls-22" d="M33.22,155.07c-.57-.57-.43-2.54.56-2.82s5.26,0,3.88,1.64c-.66.78-3.54,2.09-4.44,1.19Z"/><path class="cls-22" d="M59.18,152.26c1.28-.19,3.22-.2,3.37,1.45.31,3.31-4.07,1.13-5.1-.31.17-.79,1.01-1.03,1.73-1.14Z"/><path class="cls-22" d="M34.23,140.55c.63-.13,3.49,1.23,3.88,1.65,1.35,1.42-3.35,1.76-4.27,1.35-1.29-.58-1.1-2.69.39-2.99Z"/><path class="cls-16" d="M53.39,154.44c1.33-4.07,1.08-8.23.22-12.36.02,0-.03-.26.22-.22,1.15,4.28,1.42,8.62-.45,12.59Z"/><path class="cls-17" d="M41.26,151.52c-.63-3.84-.35-7.93,1.35-11.46l-1.35,5.96v4.05c0,.25.62,1.11,0,1.46Z"/></svg>